%TF.GenerationSoftware,KiCad,Pcbnew,8.0.5*%
%TF.CreationDate,2024-12-02T23:37:23+00:00*%
%TF.ProjectId,piano-board,7069616e-6f2d-4626-9f61-72642e6b6963,rev?*%
%TF.SameCoordinates,Original*%
%TF.FileFunction,Copper,L2,Bot*%
%TF.FilePolarity,Positive*%
%FSLAX46Y46*%
G04 Gerber Fmt 4.6, Leading zero omitted, Abs format (unit mm)*
G04 Created by KiCad (PCBNEW 8.0.5) date 2024-12-02 23:37:23*
%MOMM*%
%LPD*%
G01*
G04 APERTURE LIST*
%TA.AperFunction,ComponentPad*%
%ADD10C,2.000000*%
%TD*%
%TA.AperFunction,ComponentPad*%
%ADD11C,1.700000*%
%TD*%
%TA.AperFunction,ComponentPad*%
%ADD12C,1.600000*%
%TD*%
%TA.AperFunction,ComponentPad*%
%ADD13R,1.400000X1.400000*%
%TD*%
%TA.AperFunction,ComponentPad*%
%ADD14C,1.400000*%
%TD*%
%TA.AperFunction,ComponentPad*%
%ADD15C,3.000000*%
%TD*%
%TA.AperFunction,ComponentPad*%
%ADD16R,1.700000X1.700000*%
%TD*%
%TA.AperFunction,ComponentPad*%
%ADD17O,1.700000X1.700000*%
%TD*%
%TA.AperFunction,ViaPad*%
%ADD18C,0.800000*%
%TD*%
%TA.AperFunction,ViaPad*%
%ADD19C,0.700000*%
%TD*%
%TA.AperFunction,Conductor*%
%ADD20C,0.700000*%
%TD*%
%TA.AperFunction,Conductor*%
%ADD21C,0.300000*%
%TD*%
G04 APERTURE END LIST*
D10*
%TO.P,LS1,1,1*%
%TO.N,Net-(LS1-Pad1)*%
X164035534Y-46964466D03*
%TO.P,LS1,2,2*%
%TO.N,GND*%
X156964466Y-54035534D03*
%TD*%
D11*
%TO.P,SW2,1,1*%
%TO.N,OCT_INC*%
X213190000Y-48500000D03*
%TO.P,SW2,2,2*%
%TO.N,GND*%
X220810000Y-48500000D03*
%TD*%
D12*
%TO.P,SW1,*%
%TO.N,*%
X221000000Y-42750000D03*
X213000000Y-42750000D03*
D13*
%TO.P,SW1,1,A*%
%TO.N,/BAT+*%
X219000000Y-42750000D03*
D14*
%TO.P,SW1,2,B*%
%TO.N,VCC*%
X217000000Y-42750000D03*
%TO.P,SW1,3,C*%
%TO.N,unconnected-(SW1-C-Pad3)*%
X215000000Y-42750000D03*
%TD*%
D11*
%TO.P,SW3,1,1*%
%TO.N,OCT_DEC*%
X213190000Y-54000000D03*
%TO.P,SW3,2,2*%
%TO.N,GND*%
X220810000Y-54000000D03*
%TD*%
D15*
%TO.P,BT1,1,+*%
%TO.N,/BAT+*%
X226400000Y-51000000D03*
X247600000Y-51000000D03*
%TD*%
D16*
%TO.P,J1,1,MISO*%
%TO.N,MISO_0*%
X183475000Y-46700000D03*
D17*
%TO.P,J1,2,VCC*%
%TO.N,VCC*%
X183475000Y-44160000D03*
%TO.P,J1,3,SCK*%
%TO.N,SCK_0*%
X186015000Y-46700000D03*
%TO.P,J1,4,MOSI*%
%TO.N,MOSI_0*%
X186015000Y-44160000D03*
%TO.P,J1,5,~{RST}*%
%TO.N,RST_DBG_PIN*%
X188555000Y-46700000D03*
%TO.P,J1,6,GND*%
%TO.N,GND*%
X188555000Y-44160000D03*
%TD*%
D11*
%TO.P,SW4,1,1*%
%TO.N,WAVE_CHANGE*%
X177310000Y-58500000D03*
%TO.P,SW4,2,2*%
%TO.N,GND*%
X169690000Y-58500000D03*
%TD*%
D18*
%TO.N,GND*%
X237000000Y-53500000D03*
D19*
X217500000Y-63000000D03*
X221000000Y-90000000D03*
D18*
X234500000Y-49500000D03*
D19*
X249000000Y-83000000D03*
X158000000Y-79000000D03*
X172000000Y-65000000D03*
X200000000Y-79000000D03*
X217500000Y-81000000D03*
X189000000Y-81000000D03*
X238500000Y-99000000D03*
X179000000Y-97000000D03*
X193000000Y-97000000D03*
X158000000Y-72000000D03*
X190500000Y-46500000D03*
X175500000Y-63000000D03*
X210500000Y-99000000D03*
X197000000Y-81000000D03*
X165000000Y-97000000D03*
X214000000Y-65000000D03*
X228000000Y-65000000D03*
X175500000Y-81000000D03*
D18*
X182000000Y-53000000D03*
D19*
X214000000Y-79000000D03*
X165000000Y-83000000D03*
X242000000Y-72000000D03*
X238500000Y-63000000D03*
X224500000Y-99000000D03*
X154500000Y-99000000D03*
X207000000Y-83000000D03*
X245500000Y-99000000D03*
X182500000Y-81000000D03*
X210500000Y-81000000D03*
X241500000Y-65000000D03*
X196500000Y-99000000D03*
X151000000Y-83000000D03*
X206000000Y-43000000D03*
X224500000Y-63000000D03*
D18*
X239500000Y-49500000D03*
D19*
X193000000Y-90000000D03*
D18*
X192431250Y-50431250D03*
D19*
X210500000Y-63000000D03*
X182500000Y-63000000D03*
X165000000Y-90000000D03*
X151000000Y-90000000D03*
X207000000Y-97000000D03*
X172500000Y-53000000D03*
X172000000Y-72000000D03*
X203500000Y-63000000D03*
X249000000Y-90000000D03*
X231500000Y-81000000D03*
X186000000Y-72000000D03*
X245500000Y-81000000D03*
X168500000Y-63000000D03*
X228000000Y-72000000D03*
X231500000Y-99000000D03*
X189500000Y-99000000D03*
X168500000Y-99000000D03*
X235000000Y-90000000D03*
D18*
X237000000Y-48500000D03*
D19*
X178000000Y-49500000D03*
X200000000Y-72000000D03*
X193000000Y-83000000D03*
X161500000Y-99000000D03*
X154500000Y-81000000D03*
X224500000Y-81000000D03*
X175500000Y-99000000D03*
X179000000Y-90000000D03*
X151000000Y-97000000D03*
X186000000Y-65000000D03*
X186000000Y-79000000D03*
X221000000Y-83000000D03*
X214000000Y-72000000D03*
X182500000Y-99000000D03*
X207000000Y-90000000D03*
X200000000Y-65000000D03*
X168500000Y-81000000D03*
X172000000Y-79000000D03*
X235000000Y-83000000D03*
D18*
X234500000Y-52500000D03*
D19*
X158000000Y-65000000D03*
X231500000Y-63000000D03*
D18*
X239500000Y-52500000D03*
D19*
X228000000Y-79000000D03*
X161500000Y-63000000D03*
X235000000Y-97000000D03*
X217500000Y-99000000D03*
X238500000Y-81000000D03*
X241500000Y-79000000D03*
X174000000Y-53000000D03*
D18*
X206000000Y-47500000D03*
D19*
X161500000Y-81000000D03*
X249000000Y-97000000D03*
X203500000Y-99000000D03*
X179000000Y-83000000D03*
X203500000Y-81000000D03*
X221000000Y-97000000D03*
D18*
%TO.N,VCC*%
X211000000Y-50500000D03*
X208500000Y-50500000D03*
%TO.N,RST_DBG_PIN*%
X193967708Y-47467708D03*
D19*
X198250000Y-48250000D03*
%TO.N,KEY_2_PAD*%
X173000000Y-83500000D03*
X173000000Y-62000000D03*
%TO.N,KEY_7_PAD*%
X213000000Y-62000000D03*
X213000000Y-83500000D03*
%TO.N,KEY_9_PAD*%
X227000000Y-62000000D03*
X227000000Y-83500000D03*
D18*
%TO.N,WAVE_CHANGE*%
X193000000Y-52500000D03*
X197500000Y-51500000D03*
%TD*%
D20*
%TO.N,VCC*%
X208500000Y-50500000D02*
X211000000Y-50500000D01*
D21*
%TO.N,RST_DBG_PIN*%
X194000000Y-47500000D02*
X193967708Y-47467708D01*
X197500000Y-47500000D02*
X194000000Y-47500000D01*
X198250000Y-48250000D02*
X197500000Y-47500000D01*
%TO.N,KEY_2_PAD*%
X173000000Y-83500000D02*
X173000000Y-76500000D01*
X173000000Y-76500000D02*
X171000000Y-74500000D01*
X171000000Y-74500000D02*
X171000000Y-69500000D01*
X173000000Y-67500000D02*
X173000000Y-62000000D01*
X171000000Y-69500000D02*
X173000000Y-67500000D01*
%TO.N,KEY_7_PAD*%
X213000000Y-62000000D02*
X213000000Y-67500000D01*
X213000000Y-77000000D02*
X213000000Y-83500000D01*
X215000000Y-75000000D02*
X213000000Y-77000000D01*
X213000000Y-67500000D02*
X215000000Y-69500000D01*
X215000000Y-69500000D02*
X215000000Y-75000000D01*
%TO.N,KEY_9_PAD*%
X227000000Y-67500000D02*
X229000000Y-69500000D01*
X227000000Y-77000000D02*
X227000000Y-83500000D01*
X229000000Y-69500000D02*
X229000000Y-75000000D01*
X227000000Y-62000000D02*
X227000000Y-67500000D01*
X229000000Y-75000000D02*
X227000000Y-77000000D01*
%TO.N,WAVE_CHANGE*%
X193000000Y-52500000D02*
X196500000Y-52500000D01*
X196500000Y-52500000D02*
X197500000Y-51500000D01*
%TD*%
%TA.AperFunction,Conductor*%
%TO.N,GND*%
G36*
X247003736Y-40500726D02*
G01*
X247293796Y-40518271D01*
X247308659Y-40520076D01*
X247590798Y-40571780D01*
X247605335Y-40575363D01*
X247879172Y-40660695D01*
X247893163Y-40666000D01*
X248154743Y-40783727D01*
X248167989Y-40790680D01*
X248413465Y-40939075D01*
X248425776Y-40947573D01*
X248651573Y-41124473D01*
X248662781Y-41134403D01*
X248865596Y-41337218D01*
X248875526Y-41348426D01*
X249038078Y-41555909D01*
X249052422Y-41574217D01*
X249060926Y-41586537D01*
X249182640Y-41787876D01*
X249209316Y-41832004D01*
X249216275Y-41845263D01*
X249333997Y-42106831D01*
X249339306Y-42120832D01*
X249424635Y-42394663D01*
X249428219Y-42409201D01*
X249479923Y-42691340D01*
X249481728Y-42706205D01*
X249499274Y-42996263D01*
X249499500Y-43003750D01*
X249499500Y-49826689D01*
X249479815Y-49893728D01*
X249427011Y-49939483D01*
X249357853Y-49949427D01*
X249294297Y-49920402D01*
X249276233Y-49900999D01*
X249115745Y-49686612D01*
X249115729Y-49686594D01*
X248913405Y-49484270D01*
X248913387Y-49484254D01*
X248684317Y-49312775D01*
X248684309Y-49312770D01*
X248433166Y-49175635D01*
X248433167Y-49175635D01*
X248231722Y-49100500D01*
X248165046Y-49075631D01*
X248165043Y-49075630D01*
X248165037Y-49075628D01*
X247885433Y-49014804D01*
X247600001Y-48994390D01*
X247599999Y-48994390D01*
X247314566Y-49014804D01*
X247034962Y-49075628D01*
X246766833Y-49175635D01*
X246515690Y-49312770D01*
X246515682Y-49312775D01*
X246286612Y-49484254D01*
X246286594Y-49484270D01*
X246084270Y-49686594D01*
X246084254Y-49686612D01*
X245912775Y-49915682D01*
X245912770Y-49915690D01*
X245775635Y-50166833D01*
X245675628Y-50434962D01*
X245614804Y-50714566D01*
X245594390Y-50999998D01*
X245594390Y-51000001D01*
X245614804Y-51285433D01*
X245675628Y-51565037D01*
X245675630Y-51565043D01*
X245675631Y-51565046D01*
X245773377Y-51827112D01*
X245775635Y-51833166D01*
X245912770Y-52084309D01*
X245912775Y-52084317D01*
X246084254Y-52313387D01*
X246084270Y-52313405D01*
X246286594Y-52515729D01*
X246286612Y-52515745D01*
X246515682Y-52687224D01*
X246515690Y-52687229D01*
X246766833Y-52824364D01*
X246766832Y-52824364D01*
X246766836Y-52824365D01*
X246766839Y-52824367D01*
X247034954Y-52924369D01*
X247034960Y-52924370D01*
X247034962Y-52924371D01*
X247314566Y-52985195D01*
X247314568Y-52985195D01*
X247314572Y-52985196D01*
X247568220Y-53003337D01*
X247599999Y-53005610D01*
X247600000Y-53005610D01*
X247600001Y-53005610D01*
X247628595Y-53003564D01*
X247885428Y-52985196D01*
X247994330Y-52961506D01*
X248165037Y-52924371D01*
X248165037Y-52924370D01*
X248165046Y-52924369D01*
X248433161Y-52824367D01*
X248684315Y-52687226D01*
X248913395Y-52515739D01*
X249115739Y-52313395D01*
X249276233Y-52099000D01*
X249332166Y-52057128D01*
X249401858Y-52052144D01*
X249463181Y-52085629D01*
X249496666Y-52146952D01*
X249499500Y-52173310D01*
X249499500Y-96996249D01*
X249499274Y-97003736D01*
X249481728Y-97293794D01*
X249479923Y-97308659D01*
X249428219Y-97590798D01*
X249424635Y-97605336D01*
X249339306Y-97879167D01*
X249333997Y-97893168D01*
X249216275Y-98154736D01*
X249209316Y-98167995D01*
X249060928Y-98413459D01*
X249052422Y-98425782D01*
X248875526Y-98651573D01*
X248865596Y-98662781D01*
X248662781Y-98865596D01*
X248651573Y-98875526D01*
X248425782Y-99052422D01*
X248413459Y-99060928D01*
X248167995Y-99209316D01*
X248154736Y-99216275D01*
X247893168Y-99333997D01*
X247879167Y-99339306D01*
X247605336Y-99424635D01*
X247590798Y-99428219D01*
X247308659Y-99479923D01*
X247293794Y-99481728D01*
X247003753Y-99499273D01*
X246996266Y-99499499D01*
X153003750Y-99499499D01*
X152996263Y-99499273D01*
X152706204Y-99481727D01*
X152691339Y-99479922D01*
X152409201Y-99428218D01*
X152394663Y-99424634D01*
X152120832Y-99339305D01*
X152106831Y-99333996D01*
X151845263Y-99216274D01*
X151832004Y-99209315D01*
X151586537Y-99060925D01*
X151574220Y-99052423D01*
X151427145Y-98937197D01*
X151348426Y-98875524D01*
X151337218Y-98865594D01*
X151134404Y-98662780D01*
X151124474Y-98651572D01*
X150947573Y-98425775D01*
X150939072Y-98413459D01*
X150790683Y-98167993D01*
X150783725Y-98154735D01*
X150666001Y-97893163D01*
X150660696Y-97879171D01*
X150575364Y-97605333D01*
X150571781Y-97590796D01*
X150520077Y-97308658D01*
X150518272Y-97293793D01*
X150504487Y-97065895D01*
X150500725Y-97003712D01*
X150500500Y-96996238D01*
X150500500Y-74564071D01*
X170349499Y-74564071D01*
X170374497Y-74689738D01*
X170374499Y-74689744D01*
X170423534Y-74808125D01*
X170494726Y-74914673D01*
X170494727Y-74914674D01*
X172313181Y-76733126D01*
X172346666Y-76794449D01*
X172349500Y-76820807D01*
X172349500Y-82903802D01*
X172329815Y-82970841D01*
X172317651Y-82986773D01*
X172308140Y-82997336D01*
X172218750Y-83152164D01*
X172218747Y-83152170D01*
X172163504Y-83322192D01*
X172163503Y-83322194D01*
X172144815Y-83500000D01*
X172163503Y-83677805D01*
X172163504Y-83677807D01*
X172218747Y-83847829D01*
X172218750Y-83847835D01*
X172308141Y-84002665D01*
X172349812Y-84048946D01*
X172427764Y-84135521D01*
X172427767Y-84135523D01*
X172427770Y-84135526D01*
X172572407Y-84240612D01*
X172735733Y-84313329D01*
X172910609Y-84350500D01*
X172910610Y-84350500D01*
X173089389Y-84350500D01*
X173089391Y-84350500D01*
X173264267Y-84313329D01*
X173427593Y-84240612D01*
X173572230Y-84135526D01*
X173691859Y-84002665D01*
X173781250Y-83847835D01*
X173836497Y-83677803D01*
X173855185Y-83500000D01*
X173836497Y-83322197D01*
X173781250Y-83152165D01*
X173691859Y-82997335D01*
X173682349Y-82986773D01*
X173652120Y-82923782D01*
X173650500Y-82903802D01*
X173650500Y-76435928D01*
X173625502Y-76310261D01*
X173625501Y-76310260D01*
X173625501Y-76310256D01*
X173576465Y-76191873D01*
X173576464Y-76191872D01*
X173576461Y-76191866D01*
X173505277Y-76085332D01*
X173505276Y-76085331D01*
X173414669Y-75994724D01*
X172609681Y-75189736D01*
X171686819Y-74266873D01*
X171653334Y-74205550D01*
X171650500Y-74179192D01*
X171650500Y-69820807D01*
X171670185Y-69753768D01*
X171686819Y-69733126D01*
X173505273Y-67914672D01*
X173505276Y-67914669D01*
X173576465Y-67808127D01*
X173625501Y-67689744D01*
X173650500Y-67564069D01*
X173650500Y-62596197D01*
X173670185Y-62529158D01*
X173682352Y-62513223D01*
X173691859Y-62502665D01*
X173781250Y-62347835D01*
X173836497Y-62177803D01*
X173855185Y-62000000D01*
X212144815Y-62000000D01*
X212163503Y-62177805D01*
X212163504Y-62177807D01*
X212218747Y-62347829D01*
X212218750Y-62347835D01*
X212308141Y-62502665D01*
X212317648Y-62513223D01*
X212347879Y-62576213D01*
X212349500Y-62596197D01*
X212349500Y-67564069D01*
X212349500Y-67564071D01*
X212349499Y-67564071D01*
X212374497Y-67689738D01*
X212374499Y-67689744D01*
X212423535Y-67808127D01*
X212494723Y-67914669D01*
X212494726Y-67914673D01*
X212494727Y-67914674D01*
X214313181Y-69733126D01*
X214346666Y-69794449D01*
X214349500Y-69820807D01*
X214349500Y-74679191D01*
X214329815Y-74746230D01*
X214313181Y-74766872D01*
X212494727Y-76585325D01*
X212494726Y-76585326D01*
X212424969Y-76689728D01*
X212424959Y-76689743D01*
X212423534Y-76691873D01*
X212374499Y-76810255D01*
X212374497Y-76810261D01*
X212349500Y-76935928D01*
X212349500Y-82903802D01*
X212329815Y-82970841D01*
X212317651Y-82986773D01*
X212308140Y-82997336D01*
X212218750Y-83152164D01*
X212218747Y-83152170D01*
X212163504Y-83322192D01*
X212163503Y-83322194D01*
X212144815Y-83500000D01*
X212163503Y-83677805D01*
X212163504Y-83677807D01*
X212218747Y-83847829D01*
X212218750Y-83847835D01*
X212308141Y-84002665D01*
X212349812Y-84048946D01*
X212427764Y-84135521D01*
X212427767Y-84135523D01*
X212427770Y-84135526D01*
X212572407Y-84240612D01*
X212735733Y-84313329D01*
X212910609Y-84350500D01*
X212910610Y-84350500D01*
X213089389Y-84350500D01*
X213089391Y-84350500D01*
X213264267Y-84313329D01*
X213427593Y-84240612D01*
X213572230Y-84135526D01*
X213691859Y-84002665D01*
X213781250Y-83847835D01*
X213836497Y-83677803D01*
X213855185Y-83500000D01*
X213836497Y-83322197D01*
X213781250Y-83152165D01*
X213691859Y-82997335D01*
X213682349Y-82986773D01*
X213652120Y-82923782D01*
X213650500Y-82903802D01*
X213650500Y-77320807D01*
X213670185Y-77253768D01*
X213686819Y-77233126D01*
X215505273Y-75414672D01*
X215505276Y-75414669D01*
X215576465Y-75308127D01*
X215625501Y-75189744D01*
X215638280Y-75125501D01*
X215650500Y-75064069D01*
X215650500Y-69435931D01*
X215650500Y-69435928D01*
X215625502Y-69310261D01*
X215625501Y-69310260D01*
X215625501Y-69310256D01*
X215576465Y-69191873D01*
X215576464Y-69191872D01*
X215576461Y-69191866D01*
X215505277Y-69085332D01*
X215505270Y-69085325D01*
X215414669Y-68994724D01*
X213686818Y-67266872D01*
X213653334Y-67205550D01*
X213650500Y-67179192D01*
X213650500Y-62596197D01*
X213670185Y-62529158D01*
X213682352Y-62513223D01*
X213691859Y-62502665D01*
X213781250Y-62347835D01*
X213836497Y-62177803D01*
X213855185Y-62000000D01*
X226144815Y-62000000D01*
X226163503Y-62177805D01*
X226163504Y-62177807D01*
X226218747Y-62347829D01*
X226218750Y-62347835D01*
X226308141Y-62502665D01*
X226317648Y-62513223D01*
X226347879Y-62576213D01*
X226349500Y-62596197D01*
X226349500Y-67564069D01*
X226349500Y-67564071D01*
X226349499Y-67564071D01*
X226374497Y-67689738D01*
X226374499Y-67689744D01*
X226423535Y-67808127D01*
X226494723Y-67914669D01*
X226494726Y-67914673D01*
X226494727Y-67914674D01*
X228313181Y-69733126D01*
X228346666Y-69794449D01*
X228349500Y-69820807D01*
X228349500Y-74679191D01*
X228329815Y-74746230D01*
X228313181Y-74766872D01*
X226494727Y-76585325D01*
X226494726Y-76585326D01*
X226424969Y-76689728D01*
X226424959Y-76689743D01*
X226423534Y-76691873D01*
X226374499Y-76810255D01*
X226374497Y-76810261D01*
X226349500Y-76935928D01*
X226349500Y-82903802D01*
X226329815Y-82970841D01*
X226317651Y-82986773D01*
X226308140Y-82997336D01*
X226218750Y-83152164D01*
X226218747Y-83152170D01*
X226163504Y-83322192D01*
X226163503Y-83322194D01*
X226144815Y-83500000D01*
X226163503Y-83677805D01*
X226163504Y-83677807D01*
X226218747Y-83847829D01*
X226218750Y-83847835D01*
X226308141Y-84002665D01*
X226349812Y-84048946D01*
X226427764Y-84135521D01*
X226427767Y-84135523D01*
X226427770Y-84135526D01*
X226572407Y-84240612D01*
X226735733Y-84313329D01*
X226910609Y-84350500D01*
X226910610Y-84350500D01*
X227089389Y-84350500D01*
X227089391Y-84350500D01*
X227264267Y-84313329D01*
X227427593Y-84240612D01*
X227572230Y-84135526D01*
X227691859Y-84002665D01*
X227781250Y-83847835D01*
X227836497Y-83677803D01*
X227855185Y-83500000D01*
X227836497Y-83322197D01*
X227781250Y-83152165D01*
X227691859Y-82997335D01*
X227682349Y-82986773D01*
X227652120Y-82923782D01*
X227650500Y-82903802D01*
X227650500Y-77320807D01*
X227670185Y-77253768D01*
X227686819Y-77233126D01*
X229505273Y-75414672D01*
X229505276Y-75414669D01*
X229576465Y-75308127D01*
X229625501Y-75189744D01*
X229638280Y-75125501D01*
X229650500Y-75064069D01*
X229650500Y-69435931D01*
X229650500Y-69435928D01*
X229625502Y-69310261D01*
X229625501Y-69310260D01*
X229625501Y-69310256D01*
X229576465Y-69191873D01*
X229576464Y-69191872D01*
X229576461Y-69191866D01*
X229505277Y-69085332D01*
X229505270Y-69085325D01*
X229414669Y-68994724D01*
X227686818Y-67266872D01*
X227653334Y-67205550D01*
X227650500Y-67179192D01*
X227650500Y-62596197D01*
X227670185Y-62529158D01*
X227682352Y-62513223D01*
X227691859Y-62502665D01*
X227781250Y-62347835D01*
X227836497Y-62177803D01*
X227855185Y-62000000D01*
X227836497Y-61822197D01*
X227781250Y-61652165D01*
X227691859Y-61497335D01*
X227645003Y-61445296D01*
X227572235Y-61364478D01*
X227572232Y-61364476D01*
X227572231Y-61364475D01*
X227572230Y-61364474D01*
X227427593Y-61259388D01*
X227264267Y-61186671D01*
X227264265Y-61186670D01*
X227136594Y-61159533D01*
X227089391Y-61149500D01*
X226910609Y-61149500D01*
X226879954Y-61156015D01*
X226735733Y-61186670D01*
X226735728Y-61186672D01*
X226572408Y-61259387D01*
X226427768Y-61364475D01*
X226308140Y-61497336D01*
X226218750Y-61652164D01*
X226218747Y-61652170D01*
X226163504Y-61822192D01*
X226163503Y-61822194D01*
X226144815Y-62000000D01*
X213855185Y-62000000D01*
X213836497Y-61822197D01*
X213781250Y-61652165D01*
X213691859Y-61497335D01*
X213645003Y-61445296D01*
X213572235Y-61364478D01*
X213572232Y-61364476D01*
X213572231Y-61364475D01*
X213572230Y-61364474D01*
X213427593Y-61259388D01*
X213264267Y-61186671D01*
X213264265Y-61186670D01*
X213136594Y-61159533D01*
X213089391Y-61149500D01*
X212910609Y-61149500D01*
X212879954Y-61156015D01*
X212735733Y-61186670D01*
X212735728Y-61186672D01*
X212572408Y-61259387D01*
X212427768Y-61364475D01*
X212308140Y-61497336D01*
X212218750Y-61652164D01*
X212218747Y-61652170D01*
X212163504Y-61822192D01*
X212163503Y-61822194D01*
X212144815Y-62000000D01*
X173855185Y-62000000D01*
X173836497Y-61822197D01*
X173781250Y-61652165D01*
X173691859Y-61497335D01*
X173645003Y-61445296D01*
X173572235Y-61364478D01*
X173572232Y-61364476D01*
X173572231Y-61364475D01*
X173572230Y-61364474D01*
X173427593Y-61259388D01*
X173264267Y-61186671D01*
X173264265Y-61186670D01*
X173136594Y-61159533D01*
X173089391Y-61149500D01*
X172910609Y-61149500D01*
X172879954Y-61156015D01*
X172735733Y-61186670D01*
X172735728Y-61186672D01*
X172572408Y-61259387D01*
X172427768Y-61364475D01*
X172308140Y-61497336D01*
X172218750Y-61652164D01*
X172218747Y-61652170D01*
X172163504Y-61822192D01*
X172163503Y-61822194D01*
X172144815Y-62000000D01*
X172163503Y-62177805D01*
X172163504Y-62177807D01*
X172218747Y-62347829D01*
X172218750Y-62347835D01*
X172308141Y-62502665D01*
X172317648Y-62513223D01*
X172347879Y-62576213D01*
X172349500Y-62596197D01*
X172349500Y-67179191D01*
X172329815Y-67246230D01*
X172313181Y-67266872D01*
X170494727Y-69085325D01*
X170494726Y-69085326D01*
X170423534Y-69191874D01*
X170374499Y-69310255D01*
X170374497Y-69310261D01*
X170349500Y-69435928D01*
X170349500Y-69435931D01*
X170349500Y-74564069D01*
X170349500Y-74564071D01*
X170349499Y-74564071D01*
X150500500Y-74564071D01*
X150500500Y-58499998D01*
X168334843Y-58499998D01*
X168334843Y-58500001D01*
X168355430Y-58735315D01*
X168355432Y-58735326D01*
X168416566Y-58963483D01*
X168416570Y-58963492D01*
X168516400Y-59177579D01*
X168516402Y-59177583D01*
X168575072Y-59261373D01*
X168575073Y-59261373D01*
X169207037Y-58629409D01*
X169224075Y-58692993D01*
X169289901Y-58807007D01*
X169382993Y-58900099D01*
X169497007Y-58965925D01*
X169560590Y-58982962D01*
X168928625Y-59614925D01*
X169012421Y-59673599D01*
X169226507Y-59773429D01*
X169226516Y-59773433D01*
X169454673Y-59834567D01*
X169454684Y-59834569D01*
X169689998Y-59855157D01*
X169690002Y-59855157D01*
X169925315Y-59834569D01*
X169925326Y-59834567D01*
X170153483Y-59773433D01*
X170153492Y-59773429D01*
X170367578Y-59673600D01*
X170367582Y-59673598D01*
X170451373Y-59614926D01*
X170451373Y-59614925D01*
X169819409Y-58982962D01*
X169882993Y-58965925D01*
X169997007Y-58900099D01*
X170090099Y-58807007D01*
X170155925Y-58692993D01*
X170172962Y-58629410D01*
X170804925Y-59261373D01*
X170804926Y-59261373D01*
X170863598Y-59177582D01*
X170863600Y-59177578D01*
X170963429Y-58963492D01*
X170963433Y-58963483D01*
X171024567Y-58735326D01*
X171024569Y-58735315D01*
X171045157Y-58500001D01*
X171045157Y-58499999D01*
X175954341Y-58499999D01*
X175954341Y-58500000D01*
X175974936Y-58735403D01*
X175974938Y-58735413D01*
X176036094Y-58963655D01*
X176036096Y-58963659D01*
X176036097Y-58963663D01*
X176135847Y-59177578D01*
X176135965Y-59177830D01*
X176135967Y-59177834D01*
X176194462Y-59261373D01*
X176271505Y-59371401D01*
X176438599Y-59538495D01*
X176535384Y-59606265D01*
X176632165Y-59674032D01*
X176632167Y-59674033D01*
X176632170Y-59674035D01*
X176846337Y-59773903D01*
X177074592Y-59835063D01*
X177262918Y-59851539D01*
X177309999Y-59855659D01*
X177310000Y-59855659D01*
X177310001Y-59855659D01*
X177349234Y-59852226D01*
X177545408Y-59835063D01*
X177773663Y-59773903D01*
X177987830Y-59674035D01*
X178181401Y-59538495D01*
X178348495Y-59371401D01*
X178484035Y-59177830D01*
X178583903Y-58963663D01*
X178645063Y-58735408D01*
X178665659Y-58500000D01*
X178645063Y-58264592D01*
X178583903Y-58036337D01*
X178484035Y-57822171D01*
X178425537Y-57738626D01*
X178348494Y-57628597D01*
X178181402Y-57461506D01*
X178181395Y-57461501D01*
X177987834Y-57325967D01*
X177987830Y-57325965D01*
X177987828Y-57325964D01*
X177773663Y-57226097D01*
X177773659Y-57226096D01*
X177773655Y-57226094D01*
X177545413Y-57164938D01*
X177545403Y-57164936D01*
X177310001Y-57144341D01*
X177309999Y-57144341D01*
X177074596Y-57164936D01*
X177074586Y-57164938D01*
X176846344Y-57226094D01*
X176846335Y-57226098D01*
X176632171Y-57325964D01*
X176632169Y-57325965D01*
X176438597Y-57461505D01*
X176271505Y-57628597D01*
X176135965Y-57822169D01*
X176135964Y-57822171D01*
X176036098Y-58036335D01*
X176036094Y-58036344D01*
X175974938Y-58264586D01*
X175974936Y-58264596D01*
X175954341Y-58499999D01*
X171045157Y-58499999D01*
X171045157Y-58499998D01*
X171024569Y-58264684D01*
X171024567Y-58264673D01*
X170963433Y-58036516D01*
X170963429Y-58036507D01*
X170863600Y-57822423D01*
X170863599Y-57822421D01*
X170804925Y-57738626D01*
X170804925Y-57738625D01*
X170172962Y-58370589D01*
X170155925Y-58307007D01*
X170090099Y-58192993D01*
X169997007Y-58099901D01*
X169882993Y-58034075D01*
X169819410Y-58017037D01*
X170451373Y-57385073D01*
X170451373Y-57385072D01*
X170367583Y-57326402D01*
X170367579Y-57326400D01*
X170153492Y-57226570D01*
X170153483Y-57226566D01*
X169925326Y-57165432D01*
X169925315Y-57165430D01*
X169690002Y-57144843D01*
X169689998Y-57144843D01*
X169454684Y-57165430D01*
X169454673Y-57165432D01*
X169226516Y-57226566D01*
X169226507Y-57226570D01*
X169012419Y-57326401D01*
X168928625Y-57385072D01*
X169560590Y-58017037D01*
X169497007Y-58034075D01*
X169382993Y-58099901D01*
X169289901Y-58192993D01*
X169224075Y-58307007D01*
X169207037Y-58370590D01*
X168575072Y-57738625D01*
X168516401Y-57822419D01*
X168416570Y-58036507D01*
X168416566Y-58036516D01*
X168355432Y-58264673D01*
X168355430Y-58264684D01*
X168334843Y-58499998D01*
X150500500Y-58499998D01*
X150500500Y-53785534D01*
X155480426Y-53785534D01*
X156648780Y-53785534D01*
X156644386Y-53789928D01*
X156591725Y-53881140D01*
X156564466Y-53982873D01*
X156564466Y-54088195D01*
X156591725Y-54189928D01*
X156644386Y-54281140D01*
X156648780Y-54285534D01*
X155480426Y-54285534D01*
X155540877Y-54524250D01*
X155640733Y-54751901D01*
X155776698Y-54960012D01*
X155945058Y-55142898D01*
X155945068Y-55142907D01*
X156141228Y-55295585D01*
X156141237Y-55295591D01*
X156359851Y-55413898D01*
X156359862Y-55413903D01*
X156594973Y-55494617D01*
X156714465Y-55514557D01*
X156714466Y-55514556D01*
X156714466Y-54351220D01*
X156718860Y-54355614D01*
X156810072Y-54408275D01*
X156911805Y-54435534D01*
X157017127Y-54435534D01*
X157118860Y-54408275D01*
X157210072Y-54355614D01*
X157214466Y-54351220D01*
X157214466Y-55514557D01*
X157333958Y-55494617D01*
X157569069Y-55413903D01*
X157569080Y-55413898D01*
X157787694Y-55295591D01*
X157787703Y-55295585D01*
X157983863Y-55142907D01*
X157983873Y-55142898D01*
X158152233Y-54960012D01*
X158288198Y-54751901D01*
X158388054Y-54524250D01*
X158448506Y-54285534D01*
X157280152Y-54285534D01*
X157284546Y-54281140D01*
X157337207Y-54189928D01*
X157364466Y-54088195D01*
X157364466Y-53999999D01*
X211834341Y-53999999D01*
X211834341Y-54000000D01*
X211854936Y-54235403D01*
X211854938Y-54235413D01*
X211916094Y-54463655D01*
X211916096Y-54463659D01*
X211916097Y-54463663D01*
X212015847Y-54677578D01*
X212015965Y-54677830D01*
X212015967Y-54677834D01*
X212067830Y-54751901D01*
X212151505Y-54871401D01*
X212318599Y-55038495D01*
X212415384Y-55106265D01*
X212512165Y-55174032D01*
X212512167Y-55174033D01*
X212512170Y-55174035D01*
X212726337Y-55273903D01*
X212954592Y-55335063D01*
X213142918Y-55351539D01*
X213189999Y-55355659D01*
X213190000Y-55355659D01*
X213190001Y-55355659D01*
X213229234Y-55352226D01*
X213425408Y-55335063D01*
X213653663Y-55273903D01*
X213867830Y-55174035D01*
X214061401Y-55038495D01*
X214228495Y-54871401D01*
X214364035Y-54677830D01*
X214463903Y-54463663D01*
X214525063Y-54235408D01*
X214545659Y-54000000D01*
X214545659Y-53999998D01*
X219454843Y-53999998D01*
X219454843Y-54000001D01*
X219475430Y-54235315D01*
X219475432Y-54235326D01*
X219536566Y-54463483D01*
X219536570Y-54463492D01*
X219636400Y-54677579D01*
X219636402Y-54677583D01*
X219695072Y-54761373D01*
X219695073Y-54761373D01*
X220327037Y-54129409D01*
X220344075Y-54192993D01*
X220409901Y-54307007D01*
X220502993Y-54400099D01*
X220617007Y-54465925D01*
X220680590Y-54482962D01*
X220048625Y-55114925D01*
X220132421Y-55173599D01*
X220346507Y-55273429D01*
X220346516Y-55273433D01*
X220574673Y-55334567D01*
X220574684Y-55334569D01*
X220809998Y-55355157D01*
X220810002Y-55355157D01*
X221045315Y-55334569D01*
X221045326Y-55334567D01*
X221273483Y-55273433D01*
X221273492Y-55273429D01*
X221487578Y-55173600D01*
X221487582Y-55173598D01*
X221571373Y-55114926D01*
X221571373Y-55114925D01*
X220939409Y-54482962D01*
X221002993Y-54465925D01*
X221117007Y-54400099D01*
X221210099Y-54307007D01*
X221275925Y-54192993D01*
X221292962Y-54129410D01*
X221924925Y-54761373D01*
X221924926Y-54761373D01*
X221983598Y-54677582D01*
X221983600Y-54677578D01*
X222083429Y-54463492D01*
X222083433Y-54463483D01*
X222144567Y-54235326D01*
X222144569Y-54235315D01*
X222165157Y-54000001D01*
X222165157Y-53999998D01*
X222144569Y-53764684D01*
X222144567Y-53764673D01*
X222083433Y-53536516D01*
X222083429Y-53536507D01*
X221983600Y-53322423D01*
X221983599Y-53322421D01*
X221924925Y-53238626D01*
X221924925Y-53238625D01*
X221292962Y-53870589D01*
X221275925Y-53807007D01*
X221210099Y-53692993D01*
X221117007Y-53599901D01*
X221002993Y-53534075D01*
X220939410Y-53517037D01*
X221571373Y-52885073D01*
X221571373Y-52885072D01*
X221487583Y-52826402D01*
X221487579Y-52826400D01*
X221273492Y-52726570D01*
X221273483Y-52726566D01*
X221045326Y-52665432D01*
X221045315Y-52665430D01*
X220810002Y-52644843D01*
X220809998Y-52644843D01*
X220574684Y-52665430D01*
X220574673Y-52665432D01*
X220346516Y-52726566D01*
X220346507Y-52726570D01*
X220132419Y-52826401D01*
X220048625Y-52885072D01*
X220680590Y-53517037D01*
X220617007Y-53534075D01*
X220502993Y-53599901D01*
X220409901Y-53692993D01*
X220344075Y-53807007D01*
X220327037Y-53870589D01*
X219695073Y-53238625D01*
X219695072Y-53238625D01*
X219636401Y-53322419D01*
X219536570Y-53536507D01*
X219536566Y-53536516D01*
X219475432Y-53764673D01*
X219475430Y-53764684D01*
X219454843Y-53999998D01*
X214545659Y-53999998D01*
X214525063Y-53764592D01*
X214463903Y-53536337D01*
X214364035Y-53322171D01*
X214337414Y-53284151D01*
X214228494Y-53128597D01*
X214061402Y-52961506D01*
X214061395Y-52961501D01*
X213867834Y-52825967D01*
X213867830Y-52825965D01*
X213759556Y-52775476D01*
X213653663Y-52726097D01*
X213653659Y-52726096D01*
X213653655Y-52726094D01*
X213425413Y-52664938D01*
X213425403Y-52664936D01*
X213190001Y-52644341D01*
X213189999Y-52644341D01*
X212954596Y-52664936D01*
X212954586Y-52664938D01*
X212726344Y-52726094D01*
X212726335Y-52726098D01*
X212512171Y-52825964D01*
X212512169Y-52825965D01*
X212318597Y-52961505D01*
X212151505Y-53128597D01*
X212015965Y-53322169D01*
X212015964Y-53322171D01*
X211916098Y-53536335D01*
X211916094Y-53536344D01*
X211854938Y-53764586D01*
X211854936Y-53764596D01*
X211834341Y-53999999D01*
X157364466Y-53999999D01*
X157364466Y-53982873D01*
X157337207Y-53881140D01*
X157284546Y-53789928D01*
X157280152Y-53785534D01*
X158448506Y-53785534D01*
X158388054Y-53546817D01*
X158288198Y-53319166D01*
X158152233Y-53111055D01*
X157983873Y-52928169D01*
X157983863Y-52928160D01*
X157787703Y-52775482D01*
X157787694Y-52775476D01*
X157569080Y-52657169D01*
X157569069Y-52657164D01*
X157333958Y-52576450D01*
X157214466Y-52556510D01*
X157214466Y-53719848D01*
X157210072Y-53715454D01*
X157118860Y-53662793D01*
X157017127Y-53635534D01*
X156911805Y-53635534D01*
X156810072Y-53662793D01*
X156718860Y-53715454D01*
X156714466Y-53719848D01*
X156714466Y-52556510D01*
X156714465Y-52556510D01*
X156594973Y-52576450D01*
X156359862Y-52657164D01*
X156359851Y-52657169D01*
X156141237Y-52775476D01*
X156141228Y-52775482D01*
X155945068Y-52928160D01*
X155945058Y-52928169D01*
X155776698Y-53111055D01*
X155640733Y-53319166D01*
X155540877Y-53546817D01*
X155480426Y-53785534D01*
X150500500Y-53785534D01*
X150500500Y-52500000D01*
X192094540Y-52500000D01*
X192114326Y-52688256D01*
X192114327Y-52688259D01*
X192172818Y-52868277D01*
X192172821Y-52868284D01*
X192267467Y-53032216D01*
X192354249Y-53128597D01*
X192394129Y-53172888D01*
X192547265Y-53284148D01*
X192547270Y-53284151D01*
X192720192Y-53361142D01*
X192720197Y-53361144D01*
X192905354Y-53400500D01*
X192905355Y-53400500D01*
X193094644Y-53400500D01*
X193094646Y-53400500D01*
X193279803Y-53361144D01*
X193452730Y-53284151D01*
X193604090Y-53174182D01*
X193669896Y-53150702D01*
X193676975Y-53150500D01*
X196564071Y-53150500D01*
X196648615Y-53133682D01*
X196689744Y-53125501D01*
X196808127Y-53076465D01*
X196914669Y-53005277D01*
X197483127Y-52436819D01*
X197544450Y-52403334D01*
X197570808Y-52400500D01*
X197594644Y-52400500D01*
X197594646Y-52400500D01*
X197779803Y-52361144D01*
X197952730Y-52284151D01*
X198105871Y-52172888D01*
X198232533Y-52032216D01*
X198327179Y-51868284D01*
X198385674Y-51688256D01*
X198405460Y-51500000D01*
X198385674Y-51311744D01*
X198327179Y-51131716D01*
X198232533Y-50967784D01*
X198105871Y-50827112D01*
X198105870Y-50827111D01*
X197952734Y-50715851D01*
X197952729Y-50715848D01*
X197779807Y-50638857D01*
X197779802Y-50638855D01*
X197634001Y-50607865D01*
X197594646Y-50599500D01*
X197405354Y-50599500D01*
X197372897Y-50606398D01*
X197220197Y-50638855D01*
X197220192Y-50638857D01*
X197047270Y-50715848D01*
X197047265Y-50715851D01*
X196894129Y-50827111D01*
X196767466Y-50967785D01*
X196672821Y-51131715D01*
X196672818Y-51131722D01*
X196614327Y-51311739D01*
X196614326Y-51311741D01*
X196600831Y-51440143D01*
X196574246Y-51504757D01*
X196565191Y-51514862D01*
X196266873Y-51813181D01*
X196205550Y-51846666D01*
X196179192Y-51849500D01*
X193676975Y-51849500D01*
X193609936Y-51829815D01*
X193604090Y-51825818D01*
X193452734Y-51715851D01*
X193452729Y-51715848D01*
X193279807Y-51638857D01*
X193279802Y-51638855D01*
X193134001Y-51607865D01*
X193094646Y-51599500D01*
X192905354Y-51599500D01*
X192872897Y-51606398D01*
X192720197Y-51638855D01*
X192720192Y-51638857D01*
X192547270Y-51715848D01*
X192547265Y-51715851D01*
X192394129Y-51827111D01*
X192267466Y-51967785D01*
X192172821Y-52131715D01*
X192172818Y-52131722D01*
X192114327Y-52311740D01*
X192114326Y-52311744D01*
X192094540Y-52500000D01*
X150500500Y-52500000D01*
X150500500Y-50500000D01*
X207594540Y-50500000D01*
X207614326Y-50688256D01*
X207614327Y-50688259D01*
X207672818Y-50868277D01*
X207672821Y-50868284D01*
X207767467Y-51032216D01*
X207857063Y-51131722D01*
X207894129Y-51172888D01*
X208047265Y-51284148D01*
X208047270Y-51284151D01*
X208220192Y-51361142D01*
X208220197Y-51361144D01*
X208405354Y-51400500D01*
X208405355Y-51400500D01*
X208594644Y-51400500D01*
X208594646Y-51400500D01*
X208779803Y-51361144D01*
X208779808Y-51361141D01*
X208785986Y-51359135D01*
X208786209Y-51359821D01*
X208830067Y-51350500D01*
X210669933Y-51350500D01*
X210713790Y-51359821D01*
X210714014Y-51359135D01*
X210720194Y-51361142D01*
X210720197Y-51361144D01*
X210905354Y-51400500D01*
X210905355Y-51400500D01*
X211094644Y-51400500D01*
X211094646Y-51400500D01*
X211279803Y-51361144D01*
X211452730Y-51284151D01*
X211605871Y-51172888D01*
X211732533Y-51032216D01*
X211751134Y-50999998D01*
X224394390Y-50999998D01*
X224394390Y-51000001D01*
X224414804Y-51285433D01*
X224475628Y-51565037D01*
X224475630Y-51565043D01*
X224475631Y-51565046D01*
X224573377Y-51827112D01*
X224575635Y-51833166D01*
X224712770Y-52084309D01*
X224712775Y-52084317D01*
X224884254Y-52313387D01*
X224884270Y-52313405D01*
X225086594Y-52515729D01*
X225086612Y-52515745D01*
X225315682Y-52687224D01*
X225315690Y-52687229D01*
X225566833Y-52824364D01*
X225566832Y-52824364D01*
X225566836Y-52824365D01*
X225566839Y-52824367D01*
X225834954Y-52924369D01*
X225834960Y-52924370D01*
X225834962Y-52924371D01*
X226114566Y-52985195D01*
X226114568Y-52985195D01*
X226114572Y-52985196D01*
X226368220Y-53003337D01*
X226399999Y-53005610D01*
X226400000Y-53005610D01*
X226400001Y-53005610D01*
X226428595Y-53003564D01*
X226685428Y-52985196D01*
X226794330Y-52961506D01*
X226965037Y-52924371D01*
X226965037Y-52924370D01*
X226965046Y-52924369D01*
X227233161Y-52824367D01*
X227484315Y-52687226D01*
X227713395Y-52515739D01*
X227915739Y-52313395D01*
X228087226Y-52084315D01*
X228224367Y-51833161D01*
X228324369Y-51565046D01*
X228368725Y-51361144D01*
X228385195Y-51285433D01*
X228385195Y-51285432D01*
X228385196Y-51285428D01*
X228405610Y-51000000D01*
X228385196Y-50714572D01*
X228379471Y-50688256D01*
X228324371Y-50434962D01*
X228324370Y-50434960D01*
X228324369Y-50434954D01*
X228224367Y-50166839D01*
X228205188Y-50131716D01*
X228087229Y-49915690D01*
X228087224Y-49915682D01*
X227915745Y-49686612D01*
X227915729Y-49686594D01*
X227713405Y-49484270D01*
X227713387Y-49484254D01*
X227484317Y-49312775D01*
X227484309Y-49312770D01*
X227233166Y-49175635D01*
X227233167Y-49175635D01*
X227031722Y-49100500D01*
X226965046Y-49075631D01*
X226965043Y-49075630D01*
X226965037Y-49075628D01*
X226685433Y-49014804D01*
X226400001Y-48994390D01*
X226399999Y-48994390D01*
X226114566Y-49014804D01*
X225834962Y-49075628D01*
X225566833Y-49175635D01*
X225315690Y-49312770D01*
X225315682Y-49312775D01*
X225086612Y-49484254D01*
X225086594Y-49484270D01*
X224884270Y-49686594D01*
X224884254Y-49686612D01*
X224712775Y-49915682D01*
X224712770Y-49915690D01*
X224575635Y-50166833D01*
X224475628Y-50434962D01*
X224414804Y-50714566D01*
X224394390Y-50999998D01*
X211751134Y-50999998D01*
X211827179Y-50868284D01*
X211885674Y-50688256D01*
X211905460Y-50500000D01*
X211885674Y-50311744D01*
X211827179Y-50131716D01*
X211732533Y-49967784D01*
X211605871Y-49827112D01*
X211532638Y-49773905D01*
X211452734Y-49715851D01*
X211452729Y-49715848D01*
X211279807Y-49638857D01*
X211279802Y-49638855D01*
X211134001Y-49607865D01*
X211094646Y-49599500D01*
X210905354Y-49599500D01*
X210865999Y-49607865D01*
X210720198Y-49638855D01*
X210714014Y-49640865D01*
X210713790Y-49640178D01*
X210669933Y-49649500D01*
X208830067Y-49649500D01*
X208786209Y-49640178D01*
X208785986Y-49640865D01*
X208779801Y-49638855D01*
X208644624Y-49610123D01*
X208594646Y-49599500D01*
X208405354Y-49599500D01*
X208372897Y-49606398D01*
X208220197Y-49638855D01*
X208220192Y-49638857D01*
X208047270Y-49715848D01*
X208047265Y-49715851D01*
X207894129Y-49827111D01*
X207767466Y-49967785D01*
X207672821Y-50131715D01*
X207672818Y-50131722D01*
X207614327Y-50311740D01*
X207614326Y-50311744D01*
X207594540Y-50500000D01*
X150500500Y-50500000D01*
X150500500Y-46964460D01*
X162529891Y-46964460D01*
X162529891Y-46964471D01*
X162550424Y-47212278D01*
X162550426Y-47212290D01*
X162611470Y-47453347D01*
X162711360Y-47681072D01*
X162847367Y-47889248D01*
X162847370Y-47889251D01*
X163015790Y-48072204D01*
X163212025Y-48224940D01*
X163321374Y-48284117D01*
X163404037Y-48328852D01*
X163430724Y-48343294D01*
X163665920Y-48424037D01*
X163911199Y-48464966D01*
X164159869Y-48464966D01*
X164405148Y-48424037D01*
X164640344Y-48343294D01*
X164859043Y-48224940D01*
X165055278Y-48072204D01*
X165223698Y-47889251D01*
X165359707Y-47681073D01*
X165459597Y-47453347D01*
X165520642Y-47212287D01*
X165524525Y-47165430D01*
X165541177Y-46964471D01*
X165541177Y-46964460D01*
X165520643Y-46716653D01*
X165520641Y-46716641D01*
X165459597Y-46475584D01*
X165359707Y-46247859D01*
X165223700Y-46039683D01*
X165200202Y-46014158D01*
X165055278Y-45856728D01*
X164859043Y-45703992D01*
X164859041Y-45703991D01*
X164859040Y-45703990D01*
X164640345Y-45585638D01*
X164640336Y-45585635D01*
X164405150Y-45504895D01*
X164159869Y-45463966D01*
X163911199Y-45463966D01*
X163665917Y-45504895D01*
X163430731Y-45585635D01*
X163430722Y-45585638D01*
X163212027Y-45703990D01*
X163015791Y-45856727D01*
X162847367Y-46039683D01*
X162711360Y-46247859D01*
X162611470Y-46475584D01*
X162550426Y-46716641D01*
X162550424Y-46716653D01*
X162529891Y-46964460D01*
X150500500Y-46964460D01*
X150500500Y-44159999D01*
X182119341Y-44159999D01*
X182119341Y-44160000D01*
X182139936Y-44395403D01*
X182139938Y-44395413D01*
X182201094Y-44623655D01*
X182201096Y-44623659D01*
X182201097Y-44623663D01*
X182281004Y-44795023D01*
X182300965Y-44837830D01*
X182300967Y-44837834D01*
X182409281Y-44992521D01*
X182436501Y-45031396D01*
X182436506Y-45031402D01*
X182558430Y-45153326D01*
X182591915Y-45214649D01*
X182586931Y-45284341D01*
X182545059Y-45340274D01*
X182514083Y-45357189D01*
X182382669Y-45406203D01*
X182382664Y-45406206D01*
X182267455Y-45492452D01*
X182267452Y-45492455D01*
X182181206Y-45607664D01*
X182181202Y-45607671D01*
X182130908Y-45742517D01*
X182124501Y-45802116D01*
X182124500Y-45802135D01*
X182124500Y-47597870D01*
X182124501Y-47597876D01*
X182130908Y-47657483D01*
X182181202Y-47792328D01*
X182181206Y-47792335D01*
X182267452Y-47907544D01*
X182267455Y-47907547D01*
X182382664Y-47993793D01*
X182382671Y-47993797D01*
X182517517Y-48044091D01*
X182517516Y-48044091D01*
X182524444Y-48044835D01*
X182577127Y-48050500D01*
X184372872Y-48050499D01*
X184432483Y-48044091D01*
X184567331Y-47993796D01*
X184682546Y-47907546D01*
X184768796Y-47792331D01*
X184817810Y-47660916D01*
X184859681Y-47604984D01*
X184925145Y-47580566D01*
X184993418Y-47595417D01*
X185021673Y-47616569D01*
X185143599Y-47738495D01*
X185240384Y-47806265D01*
X185337165Y-47874032D01*
X185337167Y-47874033D01*
X185337170Y-47874035D01*
X185551337Y-47973903D01*
X185779592Y-48035063D01*
X185956034Y-48050500D01*
X186014999Y-48055659D01*
X186015000Y-48055659D01*
X186015001Y-48055659D01*
X186073966Y-48050500D01*
X186250408Y-48035063D01*
X186478663Y-47973903D01*
X186692830Y-47874035D01*
X186886401Y-47738495D01*
X187053495Y-47571401D01*
X187172284Y-47401753D01*
X187183425Y-47385842D01*
X187238002Y-47342217D01*
X187307500Y-47335023D01*
X187369855Y-47366546D01*
X187386575Y-47385842D01*
X187516500Y-47571395D01*
X187516505Y-47571401D01*
X187683599Y-47738495D01*
X187780384Y-47806265D01*
X187877165Y-47874032D01*
X187877167Y-47874033D01*
X187877170Y-47874035D01*
X188091337Y-47973903D01*
X188319592Y-48035063D01*
X188496034Y-48050500D01*
X188554999Y-48055659D01*
X188555000Y-48055659D01*
X188555001Y-48055659D01*
X188613966Y-48050500D01*
X188790408Y-48035063D01*
X189018663Y-47973903D01*
X189232830Y-47874035D01*
X189426401Y-47738495D01*
X189593495Y-47571401D01*
X189666102Y-47467708D01*
X193062248Y-47467708D01*
X193082034Y-47655964D01*
X193082035Y-47655967D01*
X193140526Y-47835985D01*
X193140529Y-47835992D01*
X193235175Y-47999924D01*
X193325195Y-48099901D01*
X193361837Y-48140596D01*
X193514973Y-48251856D01*
X193514978Y-48251859D01*
X193687900Y-48328850D01*
X193687905Y-48328852D01*
X193873062Y-48368208D01*
X193873063Y-48368208D01*
X194062352Y-48368208D01*
X194062354Y-48368208D01*
X194247511Y-48328852D01*
X194420438Y-48251859D01*
X194457489Y-48224940D01*
X194527352Y-48174182D01*
X194593158Y-48150702D01*
X194600237Y-48150500D01*
X197179192Y-48150500D01*
X197246231Y-48170185D01*
X197266868Y-48186814D01*
X197371372Y-48291317D01*
X197404856Y-48352638D01*
X197407010Y-48366029D01*
X197413503Y-48427803D01*
X197413504Y-48427805D01*
X197413504Y-48427807D01*
X197468747Y-48597829D01*
X197468750Y-48597835D01*
X197558141Y-48752665D01*
X197599812Y-48798946D01*
X197677764Y-48885521D01*
X197677767Y-48885523D01*
X197677770Y-48885526D01*
X197822407Y-48990612D01*
X197985733Y-49063329D01*
X198160609Y-49100500D01*
X198160610Y-49100500D01*
X198339389Y-49100500D01*
X198339391Y-49100500D01*
X198514267Y-49063329D01*
X198677593Y-48990612D01*
X198822230Y-48885526D01*
X198941859Y-48752665D01*
X199031250Y-48597835D01*
X199063039Y-48499999D01*
X211834341Y-48499999D01*
X211834341Y-48500000D01*
X211854936Y-48735403D01*
X211854938Y-48735413D01*
X211916094Y-48963655D01*
X211916096Y-48963659D01*
X211916097Y-48963663D01*
X212014941Y-49175633D01*
X212015965Y-49177830D01*
X212015967Y-49177834D01*
X212124281Y-49332521D01*
X212151505Y-49371401D01*
X212318599Y-49538495D01*
X212405723Y-49599500D01*
X212512165Y-49674032D01*
X212512167Y-49674033D01*
X212512170Y-49674035D01*
X212726337Y-49773903D01*
X212954592Y-49835063D01*
X213142918Y-49851539D01*
X213189999Y-49855659D01*
X213190000Y-49855659D01*
X213190001Y-49855659D01*
X213229234Y-49852226D01*
X213425408Y-49835063D01*
X213653663Y-49773903D01*
X213867830Y-49674035D01*
X214061401Y-49538495D01*
X214228495Y-49371401D01*
X214364035Y-49177830D01*
X214463903Y-48963663D01*
X214525063Y-48735408D01*
X214545659Y-48500000D01*
X214545659Y-48499998D01*
X219454843Y-48499998D01*
X219454843Y-48500001D01*
X219475430Y-48735315D01*
X219475432Y-48735326D01*
X219536566Y-48963483D01*
X219536570Y-48963492D01*
X219636400Y-49177579D01*
X219636402Y-49177583D01*
X219695072Y-49261373D01*
X219695073Y-49261373D01*
X220327037Y-48629409D01*
X220344075Y-48692993D01*
X220409901Y-48807007D01*
X220502993Y-48900099D01*
X220617007Y-48965925D01*
X220680590Y-48982962D01*
X220048625Y-49614925D01*
X220132421Y-49673599D01*
X220346507Y-49773429D01*
X220346516Y-49773433D01*
X220574673Y-49834567D01*
X220574684Y-49834569D01*
X220809998Y-49855157D01*
X220810002Y-49855157D01*
X221045315Y-49834569D01*
X221045326Y-49834567D01*
X221273483Y-49773433D01*
X221273492Y-49773429D01*
X221487578Y-49673600D01*
X221487582Y-49673598D01*
X221571373Y-49614926D01*
X221571373Y-49614925D01*
X220939409Y-48982962D01*
X221002993Y-48965925D01*
X221117007Y-48900099D01*
X221210099Y-48807007D01*
X221275925Y-48692993D01*
X221292962Y-48629410D01*
X221924925Y-49261373D01*
X221924926Y-49261373D01*
X221983598Y-49177582D01*
X221983600Y-49177578D01*
X222083429Y-48963492D01*
X222083433Y-48963483D01*
X222144567Y-48735326D01*
X222144569Y-48735315D01*
X222165157Y-48500001D01*
X222165157Y-48499998D01*
X222144569Y-48264684D01*
X222144567Y-48264673D01*
X222083433Y-48036516D01*
X222083429Y-48036507D01*
X221983600Y-47822423D01*
X221983599Y-47822421D01*
X221924925Y-47738626D01*
X221924925Y-47738625D01*
X221292962Y-48370589D01*
X221275925Y-48307007D01*
X221210099Y-48192993D01*
X221117007Y-48099901D01*
X221002993Y-48034075D01*
X220939410Y-48017037D01*
X221571373Y-47385073D01*
X221571373Y-47385072D01*
X221487583Y-47326402D01*
X221487579Y-47326400D01*
X221273492Y-47226570D01*
X221273483Y-47226566D01*
X221045326Y-47165432D01*
X221045315Y-47165430D01*
X220810002Y-47144843D01*
X220809998Y-47144843D01*
X220574684Y-47165430D01*
X220574673Y-47165432D01*
X220346516Y-47226566D01*
X220346507Y-47226570D01*
X220132419Y-47326401D01*
X220048625Y-47385072D01*
X220680590Y-48017037D01*
X220617007Y-48034075D01*
X220502993Y-48099901D01*
X220409901Y-48192993D01*
X220344075Y-48307007D01*
X220327037Y-48370589D01*
X219695073Y-47738625D01*
X219695072Y-47738625D01*
X219636401Y-47822419D01*
X219536570Y-48036507D01*
X219536566Y-48036516D01*
X219475432Y-48264673D01*
X219475430Y-48264684D01*
X219454843Y-48499998D01*
X214545659Y-48499998D01*
X214525063Y-48264592D01*
X214463903Y-48036337D01*
X214364035Y-47822171D01*
X214311636Y-47747336D01*
X214228494Y-47628597D01*
X214061402Y-47461506D01*
X214061395Y-47461501D01*
X213867834Y-47325967D01*
X213867830Y-47325965D01*
X213867828Y-47325964D01*
X213653663Y-47226097D01*
X213653659Y-47226096D01*
X213653655Y-47226094D01*
X213425413Y-47164938D01*
X213425403Y-47164936D01*
X213190001Y-47144341D01*
X213189999Y-47144341D01*
X212954596Y-47164936D01*
X212954586Y-47164938D01*
X212726344Y-47226094D01*
X212726335Y-47226098D01*
X212512171Y-47325964D01*
X212512169Y-47325965D01*
X212318597Y-47461505D01*
X212151505Y-47628597D01*
X212015965Y-47822169D01*
X212015964Y-47822171D01*
X211916098Y-48036335D01*
X211916094Y-48036344D01*
X211854938Y-48264586D01*
X211854936Y-48264596D01*
X211834341Y-48499999D01*
X199063039Y-48499999D01*
X199086497Y-48427803D01*
X199105185Y-48250000D01*
X199086497Y-48072197D01*
X199032999Y-47907547D01*
X199031252Y-47902170D01*
X199031249Y-47902164D01*
X199015009Y-47874035D01*
X198941859Y-47747335D01*
X198882196Y-47681073D01*
X198822235Y-47614478D01*
X198822232Y-47614476D01*
X198822231Y-47614475D01*
X198822230Y-47614474D01*
X198677593Y-47509388D01*
X198514267Y-47436671D01*
X198514265Y-47436670D01*
X198377473Y-47407594D01*
X198349989Y-47401752D01*
X198288508Y-47368561D01*
X198288090Y-47368144D01*
X197914674Y-46994727D01*
X197914673Y-46994726D01*
X197914669Y-46994723D01*
X197808127Y-46923535D01*
X197689744Y-46874499D01*
X197689738Y-46874497D01*
X197564071Y-46849500D01*
X197564069Y-46849500D01*
X194678022Y-46849500D01*
X194610983Y-46829815D01*
X194585871Y-46808471D01*
X194573583Y-46794823D01*
X194573577Y-46794818D01*
X194420442Y-46683559D01*
X194420437Y-46683556D01*
X194247515Y-46606565D01*
X194247510Y-46606563D01*
X194101709Y-46575573D01*
X194062354Y-46567208D01*
X193873062Y-46567208D01*
X193840605Y-46574106D01*
X193687905Y-46606563D01*
X193687900Y-46606565D01*
X193514978Y-46683556D01*
X193514973Y-46683559D01*
X193361837Y-46794819D01*
X193235174Y-46935493D01*
X193140529Y-47099423D01*
X193140526Y-47099430D01*
X193082035Y-47279448D01*
X193082034Y-47279452D01*
X193062248Y-47467708D01*
X189666102Y-47467708D01*
X189729035Y-47377830D01*
X189828903Y-47163663D01*
X189890063Y-46935408D01*
X189910659Y-46700000D01*
X189890063Y-46464592D01*
X189828903Y-46236337D01*
X189729035Y-46022171D01*
X189723425Y-46014158D01*
X189593494Y-45828597D01*
X189426402Y-45661506D01*
X189426401Y-45661505D01*
X189240405Y-45531269D01*
X189196781Y-45476692D01*
X189189588Y-45407193D01*
X189221110Y-45344839D01*
X189240405Y-45328119D01*
X189426082Y-45198105D01*
X189593105Y-45031082D01*
X189728600Y-44837578D01*
X189828429Y-44623492D01*
X189828432Y-44623486D01*
X189885636Y-44410000D01*
X188988012Y-44410000D01*
X189020925Y-44352993D01*
X189055000Y-44225826D01*
X189055000Y-44094174D01*
X189020925Y-43967007D01*
X188988012Y-43910000D01*
X189885636Y-43910000D01*
X189885635Y-43909999D01*
X189828432Y-43696513D01*
X189828429Y-43696507D01*
X189728600Y-43482422D01*
X189728599Y-43482420D01*
X189593113Y-43288926D01*
X189593108Y-43288920D01*
X189426082Y-43121894D01*
X189232578Y-42986399D01*
X189018492Y-42886570D01*
X189018486Y-42886567D01*
X188805000Y-42829364D01*
X188805000Y-43726988D01*
X188747993Y-43694075D01*
X188620826Y-43660000D01*
X188489174Y-43660000D01*
X188362007Y-43694075D01*
X188305000Y-43726988D01*
X188305000Y-42829364D01*
X188304999Y-42829364D01*
X188091513Y-42886567D01*
X188091507Y-42886570D01*
X187877422Y-42986399D01*
X187877420Y-42986400D01*
X187683926Y-43121886D01*
X187683920Y-43121891D01*
X187516891Y-43288920D01*
X187516890Y-43288922D01*
X187386880Y-43474595D01*
X187332303Y-43518219D01*
X187262804Y-43525412D01*
X187200450Y-43493890D01*
X187183730Y-43474594D01*
X187053494Y-43288597D01*
X186886402Y-43121506D01*
X186886395Y-43121501D01*
X186692834Y-42985967D01*
X186692830Y-42985965D01*
X186672931Y-42976686D01*
X186478663Y-42886097D01*
X186478659Y-42886096D01*
X186478655Y-42886094D01*
X186250413Y-42824938D01*
X186250403Y-42824936D01*
X186015001Y-42804341D01*
X186014999Y-42804341D01*
X185779596Y-42824936D01*
X185779586Y-42824938D01*
X185551344Y-42886094D01*
X185551335Y-42886098D01*
X185337171Y-42985964D01*
X185337169Y-42985965D01*
X185143597Y-43121505D01*
X184976505Y-43288597D01*
X184846575Y-43474158D01*
X184791998Y-43517783D01*
X184722500Y-43524977D01*
X184660145Y-43493454D01*
X184643425Y-43474158D01*
X184513494Y-43288597D01*
X184346402Y-43121506D01*
X184346395Y-43121501D01*
X184152834Y-42985967D01*
X184152830Y-42985965D01*
X184132931Y-42976686D01*
X183938663Y-42886097D01*
X183938659Y-42886096D01*
X183938655Y-42886094D01*
X183710413Y-42824938D01*
X183710403Y-42824936D01*
X183475001Y-42804341D01*
X183474999Y-42804341D01*
X183239596Y-42824936D01*
X183239586Y-42824938D01*
X183011344Y-42886094D01*
X183011335Y-42886098D01*
X182797171Y-42985964D01*
X182797169Y-42985965D01*
X182603597Y-43121505D01*
X182436505Y-43288597D01*
X182300965Y-43482169D01*
X182300964Y-43482171D01*
X182201098Y-43696335D01*
X182201094Y-43696344D01*
X182139938Y-43924586D01*
X182139936Y-43924596D01*
X182119341Y-44159999D01*
X150500500Y-44159999D01*
X150500500Y-43003750D01*
X150500726Y-42996263D01*
X150515622Y-42749998D01*
X211694532Y-42749998D01*
X211694532Y-42750001D01*
X211714364Y-42976686D01*
X211714366Y-42976697D01*
X211773258Y-43196488D01*
X211773261Y-43196497D01*
X211869431Y-43402732D01*
X211869432Y-43402734D01*
X211999954Y-43589141D01*
X212160858Y-43750045D01*
X212160861Y-43750047D01*
X212347266Y-43880568D01*
X212553504Y-43976739D01*
X212773308Y-44035635D01*
X212935230Y-44049801D01*
X212999998Y-44055468D01*
X213000000Y-44055468D01*
X213000002Y-44055468D01*
X213056673Y-44050509D01*
X213226692Y-44035635D01*
X213446496Y-43976739D01*
X213652734Y-43880568D01*
X213839139Y-43750047D01*
X213982367Y-43606818D01*
X214043688Y-43573335D01*
X214113380Y-43578319D01*
X214153585Y-43602864D01*
X214273437Y-43712123D01*
X214273439Y-43712125D01*
X214462595Y-43829245D01*
X214462596Y-43829245D01*
X214462599Y-43829247D01*
X214670060Y-43909618D01*
X214888757Y-43950500D01*
X214888759Y-43950500D01*
X215111241Y-43950500D01*
X215111243Y-43950500D01*
X215329940Y-43909618D01*
X215537401Y-43829247D01*
X215726562Y-43712124D01*
X215890981Y-43562236D01*
X215901046Y-43548906D01*
X215957153Y-43507271D01*
X216026865Y-43502578D01*
X216088047Y-43536319D01*
X216098948Y-43548900D01*
X216109019Y-43562236D01*
X216109022Y-43562239D01*
X216109025Y-43562242D01*
X216273437Y-43712123D01*
X216273439Y-43712125D01*
X216462595Y-43829245D01*
X216462596Y-43829245D01*
X216462599Y-43829247D01*
X216670060Y-43909618D01*
X216888757Y-43950500D01*
X216888759Y-43950500D01*
X217111241Y-43950500D01*
X217111243Y-43950500D01*
X217329940Y-43909618D01*
X217537401Y-43829247D01*
X217726562Y-43712124D01*
X217726562Y-43712123D01*
X217728755Y-43710766D01*
X217796115Y-43692211D01*
X217862815Y-43713019D01*
X217893295Y-43741878D01*
X217942454Y-43807546D01*
X217942455Y-43807546D01*
X217942456Y-43807548D01*
X218057664Y-43893793D01*
X218057671Y-43893797D01*
X218192517Y-43944091D01*
X218192516Y-43944091D01*
X218199444Y-43944835D01*
X218252127Y-43950500D01*
X219747872Y-43950499D01*
X219807483Y-43944091D01*
X219942331Y-43893796D01*
X220057546Y-43807546D01*
X220057547Y-43807545D01*
X220060336Y-43804756D01*
X220063800Y-43802863D01*
X220064646Y-43802231D01*
X220064736Y-43802352D01*
X220121657Y-43771267D01*
X220191349Y-43776248D01*
X220219141Y-43790855D01*
X220347266Y-43880568D01*
X220553504Y-43976739D01*
X220773308Y-44035635D01*
X220935230Y-44049801D01*
X220999998Y-44055468D01*
X221000000Y-44055468D01*
X221000002Y-44055468D01*
X221056673Y-44050509D01*
X221226692Y-44035635D01*
X221446496Y-43976739D01*
X221652734Y-43880568D01*
X221839139Y-43750047D01*
X222000047Y-43589139D01*
X222130568Y-43402734D01*
X222226739Y-43196496D01*
X222285635Y-42976692D01*
X222305468Y-42750000D01*
X222300981Y-42698719D01*
X222285635Y-42523313D01*
X222285635Y-42523308D01*
X222226739Y-42303504D01*
X222130568Y-42097266D01*
X222032839Y-41957693D01*
X222000045Y-41910858D01*
X221839141Y-41749954D01*
X221652734Y-41619432D01*
X221652732Y-41619431D01*
X221446497Y-41523261D01*
X221446488Y-41523258D01*
X221226697Y-41464366D01*
X221226693Y-41464365D01*
X221226692Y-41464365D01*
X221226691Y-41464364D01*
X221226686Y-41464364D01*
X221000002Y-41444532D01*
X220999998Y-41444532D01*
X220773313Y-41464364D01*
X220773302Y-41464366D01*
X220553511Y-41523258D01*
X220553502Y-41523261D01*
X220347267Y-41619431D01*
X220219143Y-41709143D01*
X220152937Y-41731470D01*
X220085170Y-41714458D01*
X220060335Y-41695243D01*
X220057546Y-41692454D01*
X220057543Y-41692452D01*
X219942331Y-41606204D01*
X219942329Y-41606203D01*
X219942328Y-41606202D01*
X219807482Y-41555908D01*
X219807483Y-41555908D01*
X219747883Y-41549501D01*
X219747881Y-41549500D01*
X219747873Y-41549500D01*
X219747864Y-41549500D01*
X218252129Y-41549500D01*
X218252123Y-41549501D01*
X218192516Y-41555908D01*
X218057671Y-41606202D01*
X218057664Y-41606206D01*
X217942455Y-41692452D01*
X217942452Y-41692455D01*
X217893298Y-41758117D01*
X217837364Y-41799988D01*
X217767673Y-41804972D01*
X217728755Y-41789233D01*
X217537404Y-41670754D01*
X217537398Y-41670752D01*
X217329940Y-41590382D01*
X217111243Y-41549500D01*
X216888757Y-41549500D01*
X216670060Y-41590382D01*
X216538864Y-41641207D01*
X216462601Y-41670752D01*
X216462595Y-41670754D01*
X216273439Y-41787874D01*
X216273437Y-41787876D01*
X216109019Y-41937762D01*
X216098953Y-41951093D01*
X216042844Y-41992728D01*
X215973132Y-41997419D01*
X215911950Y-41963676D01*
X215901047Y-41951093D01*
X215890980Y-41937762D01*
X215726562Y-41787876D01*
X215726560Y-41787874D01*
X215537404Y-41670754D01*
X215537398Y-41670752D01*
X215329940Y-41590382D01*
X215111243Y-41549500D01*
X214888757Y-41549500D01*
X214670060Y-41590382D01*
X214538864Y-41641207D01*
X214462601Y-41670752D01*
X214462595Y-41670754D01*
X214273439Y-41787874D01*
X214273436Y-41787876D01*
X214153585Y-41897135D01*
X214090781Y-41927752D01*
X214021393Y-41919554D01*
X213982366Y-41893179D01*
X213839141Y-41749954D01*
X213652734Y-41619432D01*
X213652732Y-41619431D01*
X213446497Y-41523261D01*
X213446488Y-41523258D01*
X213226697Y-41464366D01*
X213226693Y-41464365D01*
X213226692Y-41464365D01*
X213226691Y-41464364D01*
X213226686Y-41464364D01*
X213000002Y-41444532D01*
X212999998Y-41444532D01*
X212773313Y-41464364D01*
X212773302Y-41464366D01*
X212553511Y-41523258D01*
X212553502Y-41523261D01*
X212347267Y-41619431D01*
X212347265Y-41619432D01*
X212160858Y-41749954D01*
X211999954Y-41910858D01*
X211869432Y-42097265D01*
X211869431Y-42097267D01*
X211773261Y-42303502D01*
X211773258Y-42303511D01*
X211714366Y-42523302D01*
X211714364Y-42523313D01*
X211694532Y-42749998D01*
X150515622Y-42749998D01*
X150518271Y-42706205D01*
X150520076Y-42691340D01*
X150571780Y-42409201D01*
X150575364Y-42394663D01*
X150603768Y-42303511D01*
X150660696Y-42120822D01*
X150665998Y-42106841D01*
X150783731Y-41845249D01*
X150790676Y-41832016D01*
X150939080Y-41586526D01*
X150947567Y-41574230D01*
X151124480Y-41348417D01*
X151134395Y-41337226D01*
X151337226Y-41134395D01*
X151348417Y-41124480D01*
X151574230Y-40947567D01*
X151586526Y-40939080D01*
X151832016Y-40790676D01*
X151845249Y-40783731D01*
X152106841Y-40665998D01*
X152120822Y-40660696D01*
X152394668Y-40575362D01*
X152409197Y-40571780D01*
X152691344Y-40520075D01*
X152706201Y-40518271D01*
X152996264Y-40500726D01*
X153003751Y-40500500D01*
X153065892Y-40500500D01*
X246934108Y-40500500D01*
X246996249Y-40500500D01*
X247003736Y-40500726D01*
G37*
%TD.AperFunction*%
%TD*%
M02*
