M48
; DRILL file {KiCad 8.0.5} date 2024-12-02T23:38:04+0000
; FORMAT={-:-/ absolute / inch / decimal}
; #@! TF.CreationDate,2024-12-02T23:38:04+00:00
; #@! TF.GenerationSoftware,Kicad,Pcbnew,8.0.5
; #@! TF.FileFunction,Plated,1,2,PTH
FMAT,2
INCH
; #@! TA.AperFunction,Plated,PTH,ViaDrill
T1C0.0118
; #@! TA.AperFunction,Plated,PTH,ViaDrill
T2C0.0157
; #@! TA.AperFunction,Plated,PTH,ComponentDrill
T3C0.0315
; #@! TA.AperFunction,Plated,PTH,ComponentDrill
T4C0.0394
; #@! TA.AperFunction,Plated,PTH,ComponentDrill
T5C0.0787
%
G90
G05
T1
X5.9449Y-3.2677
X5.9449Y-3.5433
X5.9449Y-3.8189
X6.0827Y-3.189
X6.0827Y-3.8976
X6.2205Y-2.5591
X6.2205Y-2.8346
X6.2205Y-3.1102
X6.3583Y-2.4803
X6.3583Y-3.189
X6.3583Y-3.8976
X6.4961Y-3.2677
X6.4961Y-3.5433
X6.4961Y-3.8189
X6.6339Y-2.4803
X6.6339Y-3.189
X6.6339Y-3.8976
X6.7717Y-2.5591
X6.7717Y-2.8346
X6.7717Y-3.1102
X6.7913Y-2.0866
X6.811Y-2.4409
X6.811Y-3.2874
X6.8504Y-2.0866
X6.9094Y-2.4803
X6.9094Y-3.189
X6.9094Y-3.8976
X7.0079Y-1.9488
X7.0472Y-3.2677
X7.0472Y-3.5433
X7.0472Y-3.8189
X7.185Y-2.4803
X7.185Y-3.189
X7.185Y-3.8976
X7.3228Y-2.5591
X7.3228Y-2.8346
X7.3228Y-3.1102
X7.4409Y-3.189
X7.4606Y-3.8976
X7.5Y-1.8307
X7.5984Y-3.2677
X7.5984Y-3.5433
X7.5984Y-3.8189
X7.7362Y-3.8976
X7.7559Y-3.189
X7.8051Y-1.8996
X7.874Y-2.5591
X7.874Y-2.8346
X7.874Y-3.1102
X8.0118Y-2.4803
X8.0118Y-3.189
X8.0118Y-3.8976
X8.1102Y-1.6929
X8.1496Y-3.2677
X8.1496Y-3.5433
X8.1496Y-3.8189
X8.2874Y-2.4803
X8.2874Y-3.189
X8.2874Y-3.8976
X8.3858Y-2.4409
X8.3858Y-3.2874
X8.4252Y-2.5591
X8.4252Y-2.8346
X8.4252Y-3.1102
X8.563Y-2.4803
X8.563Y-3.189
X8.563Y-3.8976
X8.7008Y-3.2677
X8.7008Y-3.5433
X8.7008Y-3.8189
X8.8386Y-2.4803
X8.8386Y-3.189
X8.8386Y-3.8976
X8.937Y-2.4409
X8.937Y-3.2874
X8.9764Y-2.5591
X8.9764Y-2.8346
X8.9764Y-3.1102
X9.1142Y-2.4803
X9.1142Y-3.189
X9.1142Y-3.8976
X9.252Y-3.2677
X9.252Y-3.5433
X9.252Y-3.8189
X9.3898Y-2.4803
X9.3898Y-3.189
X9.3898Y-3.8976
X9.5079Y-2.5591
X9.5079Y-3.1102
X9.5276Y-2.8346
X9.6654Y-3.189
X9.6654Y-3.8976
X9.8031Y-3.2677
X9.8031Y-3.5433
X9.8031Y-3.8189
T2
X7.1654Y-2.0866
X7.576Y-1.9855
X7.5984Y-2.0669
X7.6365Y-1.8688
X7.7756Y-2.0276
X8.1102Y-1.8701
X8.2087Y-1.9882
X8.3071Y-1.9882
X9.2323Y-1.9488
X9.2323Y-2.0669
X9.3307Y-1.9094
X9.3307Y-2.1063
X9.4291Y-1.9488
X9.4291Y-2.0669
T3
X6.1797Y-2.1274
X6.4581Y-1.849
X8.4646Y-1.6831
X8.5433Y-1.6831
X8.622Y-1.6831
T4
X6.6807Y-2.3031
X6.9807Y-2.3031
X7.2234Y-1.7386
X7.2234Y-1.8386
X7.3234Y-1.7386
X7.3234Y-1.8386
X7.4234Y-1.7386
X7.4234Y-1.8386
X8.3858Y-1.6831
X8.3933Y-1.9094
X8.3933Y-2.126
X8.6933Y-1.9094
X8.6933Y-2.126
X8.7008Y-1.6831
T5
X8.9134Y-2.0079
X9.748Y-2.0079
M30
