%TF.GenerationSoftware,KiCad,Pcbnew,8.0.5*%
%TF.CreationDate,2024-12-02T23:37:23+00:00*%
%TF.ProjectId,piano-board,7069616e-6f2d-4626-9f61-72642e6b6963,rev?*%
%TF.SameCoordinates,Original*%
%TF.FileFunction,Legend,Bot*%
%TF.FilePolarity,Positive*%
%FSLAX46Y46*%
G04 Gerber Fmt 4.6, Leading zero omitted, Abs format (unit mm)*
G04 Created by KiCad (PCBNEW 8.0.5) date 2024-12-02 23:37:23*
%MOMM*%
%LPD*%
G01*
G04 APERTURE LIST*
%ADD10C,0.100000*%
%ADD11C,0.200000*%
G04 APERTURE END LIST*
D10*
X152096895Y-92180074D02*
X152896895Y-92370550D01*
X152896895Y-92370550D02*
X152325466Y-92522931D01*
X152325466Y-92522931D02*
X152896895Y-92675312D01*
X152896895Y-92675312D02*
X152096895Y-92865789D01*
X152896895Y-93513408D02*
X152477847Y-93513408D01*
X152477847Y-93513408D02*
X152401657Y-93475313D01*
X152401657Y-93475313D02*
X152363561Y-93399122D01*
X152363561Y-93399122D02*
X152363561Y-93246741D01*
X152363561Y-93246741D02*
X152401657Y-93170551D01*
X152858800Y-93513408D02*
X152896895Y-93437217D01*
X152896895Y-93437217D02*
X152896895Y-93246741D01*
X152896895Y-93246741D02*
X152858800Y-93170551D01*
X152858800Y-93170551D02*
X152782609Y-93132455D01*
X152782609Y-93132455D02*
X152706419Y-93132455D01*
X152706419Y-93132455D02*
X152630228Y-93170551D01*
X152630228Y-93170551D02*
X152592133Y-93246741D01*
X152592133Y-93246741D02*
X152592133Y-93437217D01*
X152592133Y-93437217D02*
X152554038Y-93513408D01*
X152363561Y-93818170D02*
X152896895Y-94008646D01*
X152363561Y-94199123D02*
X152896895Y-94008646D01*
X152896895Y-94008646D02*
X153087371Y-93932456D01*
X153087371Y-93932456D02*
X153125466Y-93894361D01*
X153125466Y-93894361D02*
X153163561Y-93818170D01*
X152096895Y-94427694D02*
X152896895Y-94618170D01*
X152896895Y-94618170D02*
X152325466Y-94770551D01*
X152325466Y-94770551D02*
X152896895Y-94922932D01*
X152896895Y-94922932D02*
X152096895Y-95113409D01*
X152896895Y-95761028D02*
X152477847Y-95761028D01*
X152477847Y-95761028D02*
X152401657Y-95722933D01*
X152401657Y-95722933D02*
X152363561Y-95646742D01*
X152363561Y-95646742D02*
X152363561Y-95494361D01*
X152363561Y-95494361D02*
X152401657Y-95418171D01*
X152858800Y-95761028D02*
X152896895Y-95684837D01*
X152896895Y-95684837D02*
X152896895Y-95494361D01*
X152896895Y-95494361D02*
X152858800Y-95418171D01*
X152858800Y-95418171D02*
X152782609Y-95380075D01*
X152782609Y-95380075D02*
X152706419Y-95380075D01*
X152706419Y-95380075D02*
X152630228Y-95418171D01*
X152630228Y-95418171D02*
X152592133Y-95494361D01*
X152592133Y-95494361D02*
X152592133Y-95684837D01*
X152592133Y-95684837D02*
X152554038Y-95761028D01*
X152363561Y-96065790D02*
X152896895Y-96256266D01*
X152363561Y-96446743D02*
X152896895Y-96256266D01*
X152896895Y-96256266D02*
X153087371Y-96180076D01*
X153087371Y-96180076D02*
X153125466Y-96141981D01*
X153125466Y-96141981D02*
X153163561Y-96065790D01*
X152096895Y-96675314D02*
X152896895Y-96865790D01*
X152896895Y-96865790D02*
X152325466Y-97018171D01*
X152325466Y-97018171D02*
X152896895Y-97170552D01*
X152896895Y-97170552D02*
X152096895Y-97361029D01*
X152896895Y-98008648D02*
X152477847Y-98008648D01*
X152477847Y-98008648D02*
X152401657Y-97970553D01*
X152401657Y-97970553D02*
X152363561Y-97894362D01*
X152363561Y-97894362D02*
X152363561Y-97741981D01*
X152363561Y-97741981D02*
X152401657Y-97665791D01*
X152858800Y-98008648D02*
X152896895Y-97932457D01*
X152896895Y-97932457D02*
X152896895Y-97741981D01*
X152896895Y-97741981D02*
X152858800Y-97665791D01*
X152858800Y-97665791D02*
X152782609Y-97627695D01*
X152782609Y-97627695D02*
X152706419Y-97627695D01*
X152706419Y-97627695D02*
X152630228Y-97665791D01*
X152630228Y-97665791D02*
X152592133Y-97741981D01*
X152592133Y-97741981D02*
X152592133Y-97932457D01*
X152592133Y-97932457D02*
X152554038Y-98008648D01*
X152363561Y-98313410D02*
X152896895Y-98503886D01*
X152363561Y-98694363D02*
X152896895Y-98503886D01*
X152896895Y-98503886D02*
X153087371Y-98427696D01*
X153087371Y-98427696D02*
X153125466Y-98389601D01*
X153125466Y-98389601D02*
X153163561Y-98313410D01*
X153872419Y-42161027D02*
X153872419Y-42732455D01*
X154872419Y-42446741D02*
X153872419Y-42446741D01*
X154872419Y-43065789D02*
X153872419Y-43065789D01*
X154872419Y-43494360D02*
X154348609Y-43494360D01*
X154348609Y-43494360D02*
X154253371Y-43446741D01*
X154253371Y-43446741D02*
X154205752Y-43351503D01*
X154205752Y-43351503D02*
X154205752Y-43208646D01*
X154205752Y-43208646D02*
X154253371Y-43113408D01*
X154253371Y-43113408D02*
X154300990Y-43065789D01*
X154872419Y-44399122D02*
X154348609Y-44399122D01*
X154348609Y-44399122D02*
X154253371Y-44351503D01*
X154253371Y-44351503D02*
X154205752Y-44256265D01*
X154205752Y-44256265D02*
X154205752Y-44065789D01*
X154205752Y-44065789D02*
X154253371Y-43970551D01*
X154824800Y-44399122D02*
X154872419Y-44303884D01*
X154872419Y-44303884D02*
X154872419Y-44065789D01*
X154872419Y-44065789D02*
X154824800Y-43970551D01*
X154824800Y-43970551D02*
X154729561Y-43922932D01*
X154729561Y-43922932D02*
X154634323Y-43922932D01*
X154634323Y-43922932D02*
X154539085Y-43970551D01*
X154539085Y-43970551D02*
X154491466Y-44065789D01*
X154491466Y-44065789D02*
X154491466Y-44303884D01*
X154491466Y-44303884D02*
X154443847Y-44399122D01*
X154205752Y-44875313D02*
X154872419Y-44875313D01*
X154300990Y-44875313D02*
X154253371Y-44922932D01*
X154253371Y-44922932D02*
X154205752Y-45018170D01*
X154205752Y-45018170D02*
X154205752Y-45161027D01*
X154205752Y-45161027D02*
X154253371Y-45256265D01*
X154253371Y-45256265D02*
X154348609Y-45303884D01*
X154348609Y-45303884D02*
X154872419Y-45303884D01*
X154872419Y-46208646D02*
X154348609Y-46208646D01*
X154348609Y-46208646D02*
X154253371Y-46161027D01*
X154253371Y-46161027D02*
X154205752Y-46065789D01*
X154205752Y-46065789D02*
X154205752Y-45875313D01*
X154205752Y-45875313D02*
X154253371Y-45780075D01*
X154824800Y-46208646D02*
X154872419Y-46113408D01*
X154872419Y-46113408D02*
X154872419Y-45875313D01*
X154872419Y-45875313D02*
X154824800Y-45780075D01*
X154824800Y-45780075D02*
X154729561Y-45732456D01*
X154729561Y-45732456D02*
X154634323Y-45732456D01*
X154634323Y-45732456D02*
X154539085Y-45780075D01*
X154539085Y-45780075D02*
X154491466Y-45875313D01*
X154491466Y-45875313D02*
X154491466Y-46113408D01*
X154491466Y-46113408D02*
X154443847Y-46208646D01*
X154824800Y-46637218D02*
X154872419Y-46732456D01*
X154872419Y-46732456D02*
X154872419Y-46922932D01*
X154872419Y-46922932D02*
X154824800Y-47018170D01*
X154824800Y-47018170D02*
X154729561Y-47065789D01*
X154729561Y-47065789D02*
X154681942Y-47065789D01*
X154681942Y-47065789D02*
X154586704Y-47018170D01*
X154586704Y-47018170D02*
X154539085Y-46922932D01*
X154539085Y-46922932D02*
X154539085Y-46780075D01*
X154539085Y-46780075D02*
X154491466Y-46684837D01*
X154491466Y-46684837D02*
X154396228Y-46637218D01*
X154396228Y-46637218D02*
X154348609Y-46637218D01*
X154348609Y-46637218D02*
X154253371Y-46684837D01*
X154253371Y-46684837D02*
X154205752Y-46780075D01*
X154205752Y-46780075D02*
X154205752Y-46922932D01*
X154205752Y-46922932D02*
X154253371Y-47018170D01*
X154824800Y-47446742D02*
X154872419Y-47541980D01*
X154872419Y-47541980D02*
X154872419Y-47732456D01*
X154872419Y-47732456D02*
X154824800Y-47827694D01*
X154824800Y-47827694D02*
X154729561Y-47875313D01*
X154729561Y-47875313D02*
X154681942Y-47875313D01*
X154681942Y-47875313D02*
X154586704Y-47827694D01*
X154586704Y-47827694D02*
X154539085Y-47732456D01*
X154539085Y-47732456D02*
X154539085Y-47589599D01*
X154539085Y-47589599D02*
X154491466Y-47494361D01*
X154491466Y-47494361D02*
X154396228Y-47446742D01*
X154396228Y-47446742D02*
X154348609Y-47446742D01*
X154348609Y-47446742D02*
X154253371Y-47494361D01*
X154253371Y-47494361D02*
X154205752Y-47589599D01*
X154205752Y-47589599D02*
X154205752Y-47732456D01*
X154205752Y-47732456D02*
X154253371Y-47827694D01*
X154872419Y-48303885D02*
X154205752Y-48303885D01*
X153872419Y-48303885D02*
X153920038Y-48256266D01*
X153920038Y-48256266D02*
X153967657Y-48303885D01*
X153967657Y-48303885D02*
X153920038Y-48351504D01*
X153920038Y-48351504D02*
X153872419Y-48303885D01*
X153872419Y-48303885D02*
X153967657Y-48303885D01*
X154824800Y-48732456D02*
X154872419Y-48827694D01*
X154872419Y-48827694D02*
X154872419Y-49018170D01*
X154872419Y-49018170D02*
X154824800Y-49113408D01*
X154824800Y-49113408D02*
X154729561Y-49161027D01*
X154729561Y-49161027D02*
X154681942Y-49161027D01*
X154681942Y-49161027D02*
X154586704Y-49113408D01*
X154586704Y-49113408D02*
X154539085Y-49018170D01*
X154539085Y-49018170D02*
X154539085Y-48875313D01*
X154539085Y-48875313D02*
X154491466Y-48780075D01*
X154491466Y-48780075D02*
X154396228Y-48732456D01*
X154396228Y-48732456D02*
X154348609Y-48732456D01*
X154348609Y-48732456D02*
X154253371Y-48780075D01*
X154253371Y-48780075D02*
X154205752Y-48875313D01*
X154205752Y-48875313D02*
X154205752Y-49018170D01*
X154205752Y-49018170D02*
X154253371Y-49113408D01*
X154348609Y-50684837D02*
X154348609Y-50351504D01*
X154872419Y-50351504D02*
X153872419Y-50351504D01*
X153872419Y-50351504D02*
X153872419Y-50827694D01*
X154872419Y-51208647D02*
X154205752Y-51208647D01*
X154396228Y-51208647D02*
X154300990Y-51256266D01*
X154300990Y-51256266D02*
X154253371Y-51303885D01*
X154253371Y-51303885D02*
X154205752Y-51399123D01*
X154205752Y-51399123D02*
X154205752Y-51494361D01*
X154872419Y-52256266D02*
X154348609Y-52256266D01*
X154348609Y-52256266D02*
X154253371Y-52208647D01*
X154253371Y-52208647D02*
X154205752Y-52113409D01*
X154205752Y-52113409D02*
X154205752Y-51922933D01*
X154205752Y-51922933D02*
X154253371Y-51827695D01*
X154824800Y-52256266D02*
X154872419Y-52161028D01*
X154872419Y-52161028D02*
X154872419Y-51922933D01*
X154872419Y-51922933D02*
X154824800Y-51827695D01*
X154824800Y-51827695D02*
X154729561Y-51780076D01*
X154729561Y-51780076D02*
X154634323Y-51780076D01*
X154634323Y-51780076D02*
X154539085Y-51827695D01*
X154539085Y-51827695D02*
X154491466Y-51922933D01*
X154491466Y-51922933D02*
X154491466Y-52161028D01*
X154491466Y-52161028D02*
X154443847Y-52256266D01*
X154205752Y-52732457D02*
X154872419Y-52732457D01*
X154300990Y-52732457D02*
X154253371Y-52780076D01*
X154253371Y-52780076D02*
X154205752Y-52875314D01*
X154205752Y-52875314D02*
X154205752Y-53018171D01*
X154205752Y-53018171D02*
X154253371Y-53113409D01*
X154253371Y-53113409D02*
X154348609Y-53161028D01*
X154348609Y-53161028D02*
X154872419Y-53161028D01*
X154872419Y-53637219D02*
X153872419Y-53637219D01*
X154491466Y-53732457D02*
X154872419Y-54018171D01*
X154205752Y-54018171D02*
X154586704Y-53637219D01*
X154872419Y-55732457D02*
X154872419Y-55161029D01*
X154872419Y-55446743D02*
X153872419Y-55446743D01*
X153872419Y-55446743D02*
X154015276Y-55351505D01*
X154015276Y-55351505D02*
X154110514Y-55256267D01*
X154110514Y-55256267D02*
X154158133Y-55161029D01*
X153967657Y-56113410D02*
X153920038Y-56161029D01*
X153920038Y-56161029D02*
X153872419Y-56256267D01*
X153872419Y-56256267D02*
X153872419Y-56494362D01*
X153872419Y-56494362D02*
X153920038Y-56589600D01*
X153920038Y-56589600D02*
X153967657Y-56637219D01*
X153967657Y-56637219D02*
X154062895Y-56684838D01*
X154062895Y-56684838D02*
X154158133Y-56684838D01*
X154158133Y-56684838D02*
X154300990Y-56637219D01*
X154300990Y-56637219D02*
X154872419Y-56065791D01*
X154872419Y-56065791D02*
X154872419Y-56684838D01*
X153824800Y-57827695D02*
X155110514Y-56970553D01*
X153967657Y-58113410D02*
X153920038Y-58161029D01*
X153920038Y-58161029D02*
X153872419Y-58256267D01*
X153872419Y-58256267D02*
X153872419Y-58494362D01*
X153872419Y-58494362D02*
X153920038Y-58589600D01*
X153920038Y-58589600D02*
X153967657Y-58637219D01*
X153967657Y-58637219D02*
X154062895Y-58684838D01*
X154062895Y-58684838D02*
X154158133Y-58684838D01*
X154158133Y-58684838D02*
X154300990Y-58637219D01*
X154300990Y-58637219D02*
X154872419Y-58065791D01*
X154872419Y-58065791D02*
X154872419Y-58684838D01*
X154205752Y-59541981D02*
X154872419Y-59541981D01*
X153824800Y-59303886D02*
X154539085Y-59065791D01*
X154539085Y-59065791D02*
X154539085Y-59684838D01*
D11*
X153306028Y-42488720D02*
X151806028Y-42488720D01*
X151806028Y-42488720D02*
X151806028Y-43060149D01*
X151806028Y-43060149D02*
X151877457Y-43203006D01*
X151877457Y-43203006D02*
X151948885Y-43274435D01*
X151948885Y-43274435D02*
X152091742Y-43345863D01*
X152091742Y-43345863D02*
X152306028Y-43345863D01*
X152306028Y-43345863D02*
X152448885Y-43274435D01*
X152448885Y-43274435D02*
X152520314Y-43203006D01*
X152520314Y-43203006D02*
X152591742Y-43060149D01*
X152591742Y-43060149D02*
X152591742Y-42488720D01*
X153163171Y-44845863D02*
X153234600Y-44774435D01*
X153234600Y-44774435D02*
X153306028Y-44560149D01*
X153306028Y-44560149D02*
X153306028Y-44417292D01*
X153306028Y-44417292D02*
X153234600Y-44203006D01*
X153234600Y-44203006D02*
X153091742Y-44060149D01*
X153091742Y-44060149D02*
X152948885Y-43988720D01*
X152948885Y-43988720D02*
X152663171Y-43917292D01*
X152663171Y-43917292D02*
X152448885Y-43917292D01*
X152448885Y-43917292D02*
X152163171Y-43988720D01*
X152163171Y-43988720D02*
X152020314Y-44060149D01*
X152020314Y-44060149D02*
X151877457Y-44203006D01*
X151877457Y-44203006D02*
X151806028Y-44417292D01*
X151806028Y-44417292D02*
X151806028Y-44560149D01*
X151806028Y-44560149D02*
X151877457Y-44774435D01*
X151877457Y-44774435D02*
X151948885Y-44845863D01*
X152520314Y-45988720D02*
X152591742Y-46203006D01*
X152591742Y-46203006D02*
X152663171Y-46274435D01*
X152663171Y-46274435D02*
X152806028Y-46345863D01*
X152806028Y-46345863D02*
X153020314Y-46345863D01*
X153020314Y-46345863D02*
X153163171Y-46274435D01*
X153163171Y-46274435D02*
X153234600Y-46203006D01*
X153234600Y-46203006D02*
X153306028Y-46060149D01*
X153306028Y-46060149D02*
X153306028Y-45488720D01*
X153306028Y-45488720D02*
X151806028Y-45488720D01*
X151806028Y-45488720D02*
X151806028Y-45988720D01*
X151806028Y-45988720D02*
X151877457Y-46131578D01*
X151877457Y-46131578D02*
X151948885Y-46203006D01*
X151948885Y-46203006D02*
X152091742Y-46274435D01*
X152091742Y-46274435D02*
X152234600Y-46274435D01*
X152234600Y-46274435D02*
X152377457Y-46203006D01*
X152377457Y-46203006D02*
X152448885Y-46131578D01*
X152448885Y-46131578D02*
X152520314Y-45988720D01*
X152520314Y-45988720D02*
X152520314Y-45488720D01*
X151806028Y-47917292D02*
X151806028Y-48774435D01*
X153306028Y-48345863D02*
X151806028Y-48345863D01*
X153306028Y-49488720D02*
X153234600Y-49345863D01*
X153234600Y-49345863D02*
X153163171Y-49274434D01*
X153163171Y-49274434D02*
X153020314Y-49203006D01*
X153020314Y-49203006D02*
X152591742Y-49203006D01*
X152591742Y-49203006D02*
X152448885Y-49274434D01*
X152448885Y-49274434D02*
X152377457Y-49345863D01*
X152377457Y-49345863D02*
X152306028Y-49488720D01*
X152306028Y-49488720D02*
X152306028Y-49703006D01*
X152306028Y-49703006D02*
X152377457Y-49845863D01*
X152377457Y-49845863D02*
X152448885Y-49917292D01*
X152448885Y-49917292D02*
X152591742Y-49988720D01*
X152591742Y-49988720D02*
X153020314Y-49988720D01*
X153020314Y-49988720D02*
X153163171Y-49917292D01*
X153163171Y-49917292D02*
X153234600Y-49845863D01*
X153234600Y-49845863D02*
X153306028Y-49703006D01*
X153306028Y-49703006D02*
X153306028Y-49488720D01*
X152306028Y-51274435D02*
X153306028Y-51274435D01*
X152306028Y-50631577D02*
X153091742Y-50631577D01*
X153091742Y-50631577D02*
X153234600Y-50703006D01*
X153234600Y-50703006D02*
X153306028Y-50845863D01*
X153306028Y-50845863D02*
X153306028Y-51060149D01*
X153306028Y-51060149D02*
X153234600Y-51203006D01*
X153234600Y-51203006D02*
X153163171Y-51274435D01*
X153234600Y-52631578D02*
X153306028Y-52488720D01*
X153306028Y-52488720D02*
X153306028Y-52203006D01*
X153306028Y-52203006D02*
X153234600Y-52060149D01*
X153234600Y-52060149D02*
X153163171Y-51988720D01*
X153163171Y-51988720D02*
X153020314Y-51917292D01*
X153020314Y-51917292D02*
X152591742Y-51917292D01*
X152591742Y-51917292D02*
X152448885Y-51988720D01*
X152448885Y-51988720D02*
X152377457Y-52060149D01*
X152377457Y-52060149D02*
X152306028Y-52203006D01*
X152306028Y-52203006D02*
X152306028Y-52488720D01*
X152306028Y-52488720D02*
X152377457Y-52631578D01*
X153306028Y-53274434D02*
X151806028Y-53274434D01*
X153306028Y-53917292D02*
X152520314Y-53917292D01*
X152520314Y-53917292D02*
X152377457Y-53845863D01*
X152377457Y-53845863D02*
X152306028Y-53703006D01*
X152306028Y-53703006D02*
X152306028Y-53488720D01*
X152306028Y-53488720D02*
X152377457Y-53345863D01*
X152377457Y-53345863D02*
X152448885Y-53274434D01*
X153306028Y-55774434D02*
X151806028Y-55774434D01*
X151806028Y-55774434D02*
X151806028Y-56345863D01*
X151806028Y-56345863D02*
X151877457Y-56488720D01*
X151877457Y-56488720D02*
X151948885Y-56560149D01*
X151948885Y-56560149D02*
X152091742Y-56631577D01*
X152091742Y-56631577D02*
X152306028Y-56631577D01*
X152306028Y-56631577D02*
X152448885Y-56560149D01*
X152448885Y-56560149D02*
X152520314Y-56488720D01*
X152520314Y-56488720D02*
X152591742Y-56345863D01*
X152591742Y-56345863D02*
X152591742Y-55774434D01*
X153306028Y-57274434D02*
X152306028Y-57274434D01*
X151806028Y-57274434D02*
X151877457Y-57203006D01*
X151877457Y-57203006D02*
X151948885Y-57274434D01*
X151948885Y-57274434D02*
X151877457Y-57345863D01*
X151877457Y-57345863D02*
X151806028Y-57274434D01*
X151806028Y-57274434D02*
X151948885Y-57274434D01*
X153306028Y-58631578D02*
X152520314Y-58631578D01*
X152520314Y-58631578D02*
X152377457Y-58560149D01*
X152377457Y-58560149D02*
X152306028Y-58417292D01*
X152306028Y-58417292D02*
X152306028Y-58131578D01*
X152306028Y-58131578D02*
X152377457Y-57988720D01*
X153234600Y-58631578D02*
X153306028Y-58488720D01*
X153306028Y-58488720D02*
X153306028Y-58131578D01*
X153306028Y-58131578D02*
X153234600Y-57988720D01*
X153234600Y-57988720D02*
X153091742Y-57917292D01*
X153091742Y-57917292D02*
X152948885Y-57917292D01*
X152948885Y-57917292D02*
X152806028Y-57988720D01*
X152806028Y-57988720D02*
X152734600Y-58131578D01*
X152734600Y-58131578D02*
X152734600Y-58488720D01*
X152734600Y-58488720D02*
X152663171Y-58631578D01*
X152306028Y-59345863D02*
X153306028Y-59345863D01*
X152448885Y-59345863D02*
X152377457Y-59417292D01*
X152377457Y-59417292D02*
X152306028Y-59560149D01*
X152306028Y-59560149D02*
X152306028Y-59774435D01*
X152306028Y-59774435D02*
X152377457Y-59917292D01*
X152377457Y-59917292D02*
X152520314Y-59988721D01*
X152520314Y-59988721D02*
X153306028Y-59988721D01*
X153306028Y-60917292D02*
X153234600Y-60774435D01*
X153234600Y-60774435D02*
X153163171Y-60703006D01*
X153163171Y-60703006D02*
X153020314Y-60631578D01*
X153020314Y-60631578D02*
X152591742Y-60631578D01*
X152591742Y-60631578D02*
X152448885Y-60703006D01*
X152448885Y-60703006D02*
X152377457Y-60774435D01*
X152377457Y-60774435D02*
X152306028Y-60917292D01*
X152306028Y-60917292D02*
X152306028Y-61131578D01*
X152306028Y-61131578D02*
X152377457Y-61274435D01*
X152377457Y-61274435D02*
X152448885Y-61345864D01*
X152448885Y-61345864D02*
X152591742Y-61417292D01*
X152591742Y-61417292D02*
X153020314Y-61417292D01*
X153020314Y-61417292D02*
X153163171Y-61345864D01*
X153163171Y-61345864D02*
X153234600Y-61274435D01*
X153234600Y-61274435D02*
X153306028Y-61131578D01*
X153306028Y-61131578D02*
X153306028Y-60917292D01*
X152306028Y-63060149D02*
X153306028Y-63417292D01*
X153306028Y-63417292D02*
X152306028Y-63774435D01*
X153306028Y-65131578D02*
X153306028Y-64274435D01*
X153306028Y-64703006D02*
X151806028Y-64703006D01*
X151806028Y-64703006D02*
X152020314Y-64560149D01*
X152020314Y-64560149D02*
X152163171Y-64417292D01*
X152163171Y-64417292D02*
X152234600Y-64274435D01*
X153163171Y-65774434D02*
X153234600Y-65845863D01*
X153234600Y-65845863D02*
X153306028Y-65774434D01*
X153306028Y-65774434D02*
X153234600Y-65703006D01*
X153234600Y-65703006D02*
X153163171Y-65774434D01*
X153163171Y-65774434D02*
X153306028Y-65774434D01*
X151806028Y-66774435D02*
X151806028Y-66917292D01*
X151806028Y-66917292D02*
X151877457Y-67060149D01*
X151877457Y-67060149D02*
X151948885Y-67131578D01*
X151948885Y-67131578D02*
X152091742Y-67203006D01*
X152091742Y-67203006D02*
X152377457Y-67274435D01*
X152377457Y-67274435D02*
X152734600Y-67274435D01*
X152734600Y-67274435D02*
X153020314Y-67203006D01*
X153020314Y-67203006D02*
X153163171Y-67131578D01*
X153163171Y-67131578D02*
X153234600Y-67060149D01*
X153234600Y-67060149D02*
X153306028Y-66917292D01*
X153306028Y-66917292D02*
X153306028Y-66774435D01*
X153306028Y-66774435D02*
X153234600Y-66631578D01*
X153234600Y-66631578D02*
X153163171Y-66560149D01*
X153163171Y-66560149D02*
X153020314Y-66488720D01*
X153020314Y-66488720D02*
X152734600Y-66417292D01*
X152734600Y-66417292D02*
X152377457Y-66417292D01*
X152377457Y-66417292D02*
X152091742Y-66488720D01*
X152091742Y-66488720D02*
X151948885Y-66560149D01*
X151948885Y-66560149D02*
X151877457Y-66631578D01*
X151877457Y-66631578D02*
X151806028Y-66774435D01*
M02*
