%TF.GenerationSoftware,KiCad,Pcbnew,8.0.5*%
%TF.CreationDate,2024-12-02T23:37:23+00:00*%
%TF.ProjectId,piano-board,7069616e-6f2d-4626-9f61-72642e6b6963,rev?*%
%TF.SameCoordinates,Original*%
%TF.FileFunction,Soldermask,Top*%
%TF.FilePolarity,Negative*%
%FSLAX46Y46*%
G04 Gerber Fmt 4.6, Leading zero omitted, Abs format (unit mm)*
G04 Created by KiCad (PCBNEW 8.0.5) date 2024-12-02 23:37:23*
%MOMM*%
%LPD*%
G01*
G04 APERTURE LIST*
G04 Aperture macros list*
%AMRoundRect*
0 Rectangle with rounded corners*
0 $1 Rounding radius*
0 $2 $3 $4 $5 $6 $7 $8 $9 X,Y pos of 4 corners*
0 Add a 4 corners polygon primitive as box body*
4,1,4,$2,$3,$4,$5,$6,$7,$8,$9,$2,$3,0*
0 Add four circle primitives for the rounded corners*
1,1,$1+$1,$2,$3*
1,1,$1+$1,$4,$5*
1,1,$1+$1,$6,$7*
1,1,$1+$1,$8,$9*
0 Add four rect primitives between the rounded corners*
20,1,$1+$1,$2,$3,$4,$5,0*
20,1,$1+$1,$4,$5,$6,$7,0*
20,1,$1+$1,$6,$7,$8,$9,0*
20,1,$1+$1,$8,$9,$2,$3,0*%
%AMFreePoly0*
4,1,19,0.500000,-0.750000,0.000000,-0.750000,0.000000,-0.744911,-0.071157,-0.744911,-0.207708,-0.704816,-0.327430,-0.627875,-0.420627,-0.520320,-0.479746,-0.390866,-0.500000,-0.250000,-0.500000,0.250000,-0.479746,0.390866,-0.420627,0.520320,-0.327430,0.627875,-0.207708,0.704816,-0.071157,0.744911,0.000000,0.744911,0.000000,0.750000,0.500000,0.750000,0.500000,-0.750000,0.500000,-0.750000,
$1*%
%AMFreePoly1*
4,1,19,0.000000,0.744911,0.071157,0.744911,0.207708,0.704816,0.327430,0.627875,0.420627,0.520320,0.479746,0.390866,0.500000,0.250000,0.500000,-0.250000,0.479746,-0.390866,0.420627,-0.520320,0.327430,-0.627875,0.207708,-0.704816,0.071157,-0.744911,0.000000,-0.744911,0.000000,-0.750000,-0.500000,-0.750000,-0.500000,0.750000,0.000000,0.750000,0.000000,0.744911,0.000000,0.744911,
$1*%
%AMFreePoly2*
4,1,11,1.015000,1.170000,0.435000,0.575000,0.435000,-0.575000,1.015000,-1.170000,1.015000,-1.945000,0.125000,-1.945000,-0.435000,-1.395000,-0.435000,1.395000,0.125000,1.945000,1.015000,1.945000,1.015000,1.170000,1.015000,1.170000,$1*%
%AMFreePoly3*
4,1,11,0.435000,1.395000,0.435000,-1.395000,-0.125000,-1.945000,-1.015000,-1.945000,-1.015000,-1.170000,-0.435000,-0.575000,-0.435000,0.575000,-1.015000,1.170000,-1.015000,1.945000,-0.125000,1.945000,0.435000,1.395000,0.435000,1.395000,$1*%
G04 Aperture macros list end*
%ADD10RoundRect,0.237500X-0.237500X0.250000X-0.237500X-0.250000X0.237500X-0.250000X0.237500X0.250000X0*%
%ADD11FreePoly0,0.000000*%
%ADD12FreePoly1,0.000000*%
%ADD13C,2.000000*%
%ADD14RoundRect,0.237500X0.287500X0.237500X-0.287500X0.237500X-0.287500X-0.237500X0.287500X-0.237500X0*%
%ADD15FreePoly2,180.000000*%
%ADD16FreePoly3,180.000000*%
%ADD17RoundRect,0.237500X-0.344715X0.008839X0.008839X-0.344715X0.344715X-0.008839X-0.008839X0.344715X0*%
%ADD18RoundRect,0.237500X0.250000X0.237500X-0.250000X0.237500X-0.250000X-0.237500X0.250000X-0.237500X0*%
%ADD19RoundRect,0.237500X-0.300000X-0.237500X0.300000X-0.237500X0.300000X0.237500X-0.300000X0.237500X0*%
%ADD20RoundRect,0.237500X-0.237500X0.300000X-0.237500X-0.300000X0.237500X-0.300000X0.237500X0.300000X0*%
%ADD21C,1.700000*%
%ADD22R,1.600000X0.550000*%
%ADD23R,0.550000X1.600000*%
%ADD24C,1.600000*%
%ADD25R,1.400000X1.400000*%
%ADD26C,1.400000*%
%ADD27RoundRect,0.150000X0.587500X0.150000X-0.587500X0.150000X-0.587500X-0.150000X0.587500X-0.150000X0*%
%ADD28RoundRect,0.237500X0.300000X0.237500X-0.300000X0.237500X-0.300000X-0.237500X0.300000X-0.237500X0*%
%ADD29RoundRect,0.237500X0.237500X-0.300000X0.237500X0.300000X-0.237500X0.300000X-0.237500X-0.300000X0*%
%ADD30RoundRect,0.237500X-0.250000X-0.237500X0.250000X-0.237500X0.250000X0.237500X-0.250000X0.237500X0*%
%ADD31C,3.000000*%
%ADD32R,4.000000X4.000000*%
%ADD33R,1.700000X1.700000*%
%ADD34O,1.700000X1.700000*%
G04 APERTURE END LIST*
D10*
%TO.C,R6*%
X196500000Y-58087500D03*
X196500000Y-59912500D03*
%TD*%
D11*
%TO.C,JP1*%
X191850001Y-46000000D03*
D12*
X193149999Y-46000000D03*
%TD*%
D13*
%TO.C,LS1*%
X164035534Y-46964466D03*
X156964466Y-54035534D03*
%TD*%
D10*
%TO.C,R8*%
X200500000Y-58087500D03*
X200500000Y-59912500D03*
%TD*%
D14*
%TO.C,D1*%
X200874999Y-43000000D03*
X199125001Y-43000000D03*
%TD*%
D15*
%TO.C,L1*%
X175265000Y-48500000D03*
D16*
X171735000Y-48500000D03*
%TD*%
D17*
%TO.C,R12*%
X208354765Y-53854765D03*
X209645235Y-55145235D03*
%TD*%
D10*
%TO.C,R4*%
X192500000Y-58087500D03*
X192500000Y-59912500D03*
%TD*%
D18*
%TO.C,R15*%
X174412500Y-45000000D03*
X172587500Y-45000000D03*
%TD*%
D19*
%TO.C,C5*%
X170637499Y-52000000D03*
X172362501Y-52000000D03*
%TD*%
D10*
%TO.C,R5*%
X194500000Y-58087500D03*
X194500000Y-59912500D03*
%TD*%
D20*
%TO.C,C2*%
X178500000Y-47137498D03*
X178500000Y-48862500D03*
%TD*%
D21*
%TO.C,SW2*%
X213190000Y-48500000D03*
X220810000Y-48500000D03*
%TD*%
D22*
%TO.C,U1*%
X204250000Y-52800000D03*
X204250000Y-52000000D03*
X204250000Y-51200000D03*
X204250000Y-50400000D03*
X204250000Y-49600000D03*
X204250000Y-48800000D03*
X204250000Y-48000000D03*
X204250000Y-47200000D03*
D23*
X202800000Y-45750000D03*
X202000000Y-45750000D03*
X201200000Y-45750000D03*
X200400000Y-45750000D03*
X199600000Y-45750000D03*
X198800000Y-45750000D03*
X198000000Y-45750000D03*
X197200000Y-45750000D03*
D22*
X195750000Y-47200000D03*
X195750000Y-48000000D03*
X195750000Y-48800000D03*
X195750000Y-49600000D03*
X195750000Y-50400000D03*
X195750000Y-51200000D03*
X195750000Y-52000000D03*
X195750000Y-52800000D03*
D23*
X197200000Y-54250000D03*
X198000000Y-54250000D03*
X198800000Y-54250000D03*
X199600000Y-54250000D03*
X200400000Y-54250000D03*
X201200000Y-54250000D03*
X202000000Y-54250000D03*
X202800000Y-54250000D03*
%TD*%
D24*
%TO.C,SW1*%
X221000000Y-42750000D03*
X213000000Y-42750000D03*
D25*
X219000000Y-42750000D03*
D26*
X217000000Y-42750000D03*
X215000000Y-42750000D03*
%TD*%
D20*
%TO.C,C4*%
X193500000Y-48637499D03*
X193500000Y-50362501D03*
%TD*%
D27*
%TO.C,Q1*%
X180194858Y-54950000D03*
X180194858Y-53050000D03*
X178319857Y-54000000D03*
%TD*%
D21*
%TO.C,SW3*%
X213190000Y-54000000D03*
X220810000Y-54000000D03*
%TD*%
D28*
%TO.C,C6*%
X175862501Y-52000000D03*
X174137499Y-52000000D03*
%TD*%
D10*
%TO.C,R7*%
X198500000Y-58087500D03*
X198500000Y-59912500D03*
%TD*%
%TO.C,R2*%
X188500000Y-58087500D03*
X188500000Y-59912500D03*
%TD*%
%TO.C,R3*%
X190500000Y-58087500D03*
X190500000Y-59912500D03*
%TD*%
D29*
%TO.C,C3*%
X207000000Y-49862501D03*
X207000000Y-48137499D03*
%TD*%
D10*
%TO.C,FB1*%
X178500000Y-43087500D03*
X178500000Y-44912500D03*
%TD*%
D30*
%TO.C,R13*%
X184087500Y-49500000D03*
X185912500Y-49500000D03*
%TD*%
D10*
%TO.C,R1*%
X186500000Y-58087500D03*
X186500000Y-59912500D03*
%TD*%
D28*
%TO.C,C1*%
X190862501Y-50500000D03*
X189137499Y-50500000D03*
%TD*%
D17*
%TO.C,R9*%
X203854765Y-58354765D03*
X205145235Y-59645235D03*
%TD*%
D31*
%TO.C,BT1*%
X226400000Y-51000000D03*
X247600000Y-51000000D03*
D32*
X237000000Y-51000000D03*
%TD*%
D33*
%TO.C,J1*%
X183475000Y-46700000D03*
D34*
X183475000Y-44160000D03*
X186015000Y-46700000D03*
X186015000Y-44160000D03*
X188555000Y-46700000D03*
X188555000Y-44160000D03*
%TD*%
D27*
%TO.C,Q2*%
X184437500Y-54950000D03*
X184437500Y-53050000D03*
X182562499Y-54000000D03*
%TD*%
D30*
%TO.C,R14*%
X203087500Y-43000000D03*
X204912500Y-43000000D03*
%TD*%
D17*
%TO.C,R10*%
X205354765Y-56854765D03*
X206645235Y-58145235D03*
%TD*%
D21*
%TO.C,SW4*%
X177310000Y-58500000D03*
X169690000Y-58500000D03*
%TD*%
D17*
%TO.C,R11*%
X206854765Y-55354765D03*
X208145235Y-56645235D03*
%TD*%
M02*
